<?xml version="1.0" standalone="no"?>
<!DOCTYPE svg PUBLIC "-//W3C//DTD SVG 1.1//EN" "http://www.w3.org/Graphics/SVG/1.1/DTD/svg11.dtd" >
<svg xmlns="http://www.w3.org/2000/svg">
<metadata>
Created by FontForge 20120731 at Tue May 24 17:32:30 2016
 By admin
</metadata>
<defs>
<font id="iconfont" horiz-adv-x="1024" >
  <font-face 
    font-family="iconfont"
    font-weight="500"
    font-stretch="normal"
    units-per-em="1024"
    panose-1="2 0 6 3 0 0 0 0 0 0"
    ascent="896"
    descent="-128"
    x-height="792"
    bbox="-0.153153 -212 2814 896.545"
    underline-thickness="50"
    underline-position="-100"
    unicode-range="U+0078-E647"
  />
<missing-glyph horiz-adv-x="374" 
d="M34 0v682h272v-682h-272zM68 34h204v614h-204v-614z" />
    <glyph glyph-name=".notdef" horiz-adv-x="374" 
d="M34 0v682h272v-682h-272zM68 34h204v614h-204v-614z" />
    <glyph glyph-name=".null" horiz-adv-x="0" 
 />
    <glyph glyph-name="nonmarkingreturn" horiz-adv-x="341" 
 />
    <glyph glyph-name="x" unicode="x" horiz-adv-x="1001" 
d="M281 543q-27 -1 -53 -1h-83q-18 0 -36.5 -6t-32.5 -18.5t-23 -32t-9 -45.5v-76h912v41q0 16 -0.5 30t-0.5 18q0 13 -5 29t-17 29.5t-31.5 22.5t-49.5 9h-133v-97h-438v97zM955 310v-52q0 -23 0.5 -52t0.5 -58t-10.5 -47.5t-26 -30t-33 -16t-31.5 -4.5q-14 -1 -29.5 -0.5
t-29.5 0.5h-32l-45 128h-439l-44 -128h-29h-34q-20 0 -45 1q-25 0 -41 9.5t-25.5 23t-13.5 29.5t-4 30v167h911zM163 247q-12 0 -21 -8.5t-9 -21.5t9 -21.5t21 -8.5q13 0 22 8.5t9 21.5t-9 21.5t-22 8.5zM316 123q-8 -26 -14 -48q-5 -19 -10.5 -37t-7.5 -25t-3 -15t1 -14.5
t9.5 -10.5t21.5 -4h37h67h81h80h64h36q23 0 34 12t2 38q-5 13 -9.5 30.5t-9.5 34.5q-5 19 -11 39h-368zM336 498v228q0 11 2.5 23t10 21.5t20.5 15.5t34 6h188q31 0 51.5 -14.5t20.5 -52.5v-227h-327z" />
    <glyph glyph-name="uniE600" unicode="&#xe600;" 
d="M1024 832h-640v-128h-160l-224 -224v-352h67q-3 -10 -3 -32q0 -67 46.5 -113.5t113.5 -46.5t113.5 46.5t46.5 113.5q0 22 -3 32h262q-3 -10 -3 -32q0 -67 46.5 -113.5t113.5 -46.5t113.5 46.5t46.5 113.5q0 22 -3 32h67v704zM224 0q-41 0 -68.5 27.5t-27.5 68.5
t27.5 68.5t68.5 27.5t68.5 -27.5t27.5 -68.5t-27.5 -68.5t-68.5 -27.5zM384 192h-32q-48 64 -128 64t-128 -64h-32v256l192 192h128v-448zM800 0q-41 0 -68.5 27.5t-27.5 68.5t27.5 68.5t68.5 27.5t68.5 -27.5t27.5 -68.5t-27.5 -68.5t-68.5 -27.5zM960 192h-32
q-48 64 -128 64t-128 -64h-224v128h512v-128zM960 384h-512v384h512v-384z" />
    <glyph glyph-name="uniE601" unicode="&#xe601;" 
d="M450 196l401 402l-132 134l-402 -402zM205 84l203 67l-134 135zM938 677q21 22 23.5 42t-8 36t-35.5 41.5t-41 35.5t-35.5 7.5t-41.5 -24.5l-36 -39l135 -135zM953 511v-568h-880v881h566v63h-629v-1007h1006v631h-63z" />
    <glyph glyph-name="uniE602" unicode="&#xe602;" 
d="M764.5 638.5q-49.5 49.5 -113.5 76.5q-66 29 -139 29t-140 -29q-64 -27 -113.5 -76.5t-76.5 -113.5q-28 -67 -28 -139.5t28 -139.5q27 -64 77 -114q7 -7 15 -14l-67 -67l29 -29l71 70q30 -22 65 -36q67 -28 140 -28t139 28q35 14 66 36l70 -70l29 29l-66 67q8 7 15 14
q49 50 77 114q28 67 28 139.5t-28 139.5q-28 64 -77.5 113.5zM735.5 161.5q-92.5 -92.5 -223.5 -92.5t-224 92.5t-93 224t93 224t224 92.5t223.5 -92.5t92.5 -224t-92.5 -224zM511 561h-42v-248h166v42h-124v206zM113 631l149 149l36 -37l-148 -149zM725 743l37 37l149 -149
l-37 -37z" />
    <glyph glyph-name="uniE603" unicode="&#xe603;" 
d="M735 262l52 -324l-276 153l-277 -153l53 324l-223 228l308 47l139 295l138 -295l309 -47z" />
    <glyph glyph-name="uniE604" unicode="&#xe604;" horiz-adv-x="1083" 
d="M1067 -3q0 -52 -37 -88.5t-89 -36.5h-800q-52 0 -89 36.5t-37 88.5v751q0 41 29.5 70.5t71.5 29.5h404l89 44q28 10 43 -2l24 -42h190q42 0 71 -29.5t29 -70.5v-75q42 0 71.5 -29.5t29.5 -70.5v-576v0zM116 798q-20 0 -35.5 -26t-15.5 -49q0 -21 15 -35.5t36 -14.5h36
h-25h4h1l300 125h-316v0zM643 793l-27 49l-89 -44l-276 -125h452l-60 120v0zM916 748q0 21 -14.5 35.5t-35.5 14.5h-172l62 -125h160v75v0zM966 623h-850q-27 0 -51 14v-640q0 -31 22 -53t54 -22h800q32 0 54 22t22 53v175h-101q-41 0 -70.5 29.5t-29.5 71t29.5 71
t70.5 29.5h101v200q0 21 -15 35.5t-36 14.5v0zM1017 222v100h-101q-20 0 -35 -14.5t-15 -35t15 -35.5t35 -15h101v0zM916 297h50v-50h-50v50v0zM916 297z" />
    <glyph glyph-name="uniE605" unicode="&#xe605;" 
d="M614 340q72 31 116 96.5t44 145.5q1 109 -76 186.5t-185.5 77.5t-186.5 -77.5t-78 -186.5q0 -80 44.5 -145.5t115.5 -96.5q-141 -34 -233.5 -151t-92.5 -267h64q0 99 49 183.5t133.5 133.5t183.5 49t183.5 -49t133.5 -133.5t49 -183.5h64q0 150 -92.5 267t-235.5 151z
M312 582.5q0 82.5 58.5 141t141.5 58.5t141.5 -58.5t58.5 -141t-58.5 -141t-141.5 -58.5t-141.5 58.5t-58.5 141z" />
    <glyph glyph-name="uniE606" unicode="&#xe606;" 
d="M507 222l-384 384q-9 10 -22 10t-22.5 -9.5t-9.5 -22.5t9 -22l404 -404q12 -12 25 -12q19 0 26 6l409 410q10 9 10 22t-9.5 22.5t-22.5 9.5t-22 -10z" />
    <glyph glyph-name="uniE607" unicode="&#xe607;" 
d="M497 104q-2 -8 5 -10.5t11 4.5q84 128 196 292q10 16 2.5 28t-21.5 12h-158h-25q-7 0 -9.5 4.5t-0.5 9.5l11 21q72 145 84 168q8 17 0 29.5t-23 12.5h-103q-17 0 -24 -16q-119 -274 -126 -289q-8 -14 -1 -28t24 -14h32h45q26 0 47.5 -0.5t36.5 -0.5h15q7 0 11 -5t3 -12
l-7 -49q-8 -49 -16 -100.5t-9 -56.5zM912 592l-23 -39q40 -86 36 -187t-55 -188q-42 -72 -108.5 -122t-141.5 -70t-157.5 -10t-155 51.5t-122 108t-69.5 142t-10.5 158t51.5 154.5t108.5 122t142 70t157.5 10t155 -52q62 -36 109 -91l20 35q-48 53 -110 89q-79 46 -169 56.5
t-172.5 -11.5t-155 -76t-118 -133t-56.5 -169t11 -172t76.5 -155t133.5 -118.5t169 -56t172 11.5t154.5 76t118.5 133q59 102 60 219t-51 214z" />
    <glyph glyph-name="uniE608" unicode="&#xe608;" 
d="M908 153q9 -8 21 -8t21 8.5t9 21t-9 21.5l-416 416q-9 10 -23 9q-14 1 -23 -9l-416 -416q-9 -9 -9 -21.5t9 -21t21 -8.5t21 8l397 397z" />
    <glyph glyph-name="uniE609" unicode="&#xe609;" horiz-adv-x="1000" 
d="M676 567q16 0 34 -2q-23 106 -123.5 176t-229.5 70q-95 0 -175.5 -39.5t-127.5 -108t-47 -150.5q0 -138 140 -236l-35 -106l122 62q89 -18 123 -18q15 0 33 2q-11 37 -11 73q0 115 86.5 196t210.5 81zM485.5 669q22.5 0 38.5 -16t16 -38.5t-16 -38t-38.5 -15.5t-38 15.5
t-15.5 38t15.5 38.5t38 16zM240.5 560q-22.5 0 -38 15.5t-15.5 38t15.5 38.5t38 16t38.5 -16t16 -38.5t-16 -38t-38.5 -15.5zM994 293q0 68 -41.5 127t-110 93t-146.5 34q-124 0 -211 -74.5t-87 -179.5t87 -179.5t211 -74.5q35 0 105 18l96 -53l-26 87q123 92 123 202z
M605 332q-16 0 -27.5 11.5t-11.5 27.5t11.5 27t27.5 11t27 -11t11 -27t-11 -27.5t-27 -11.5zM797 330q-16 0 -27 11.5t-11 27.5t11 27t27 11t27.5 -11t11.5 -27t-11.5 -27.5t-27.5 -11.5z" />
    <glyph glyph-name="uniE60A" unicode="&#xe60a;" 
d="M896 859h-768q-29 0 -50 -21t-21 -51v-806q0 -30 21 -51t50 -21h768q29 0 50 21t21 51v806q0 30 -21 51t-50 21zM283 711q5 13 17 19.5t25 3.5q25 -5 31 -28.5t-14 -40.5q-2 -1 -3 -3q-2 -20 0 -43q0 -1 2 -19h1q7 -34 15 -49q18 -39 47 -64q81 -68 174 -27q62 27 93 99
q11 31 13 52q3 24 1 48q-1 5 -4 8q-11 8 -14 21t3 25.5t18.5 18t25.5 2.5q24 -6 29 -31t-17 -39q-2 -2 -2 -5q0 -23 -1 -44q0 -1 -1 -15q-5 -25 -12 -46q-18 -50 -55 -87q-48 -47 -112 -58q-1 0 -20 -2h-23h-2q-56 4 -102 37q-58 42 -83 113q-8 24 -11 43v3q-4 28 -2 55
q1 4 -3 6q-11 8 -15 21t1 26zM934 12q0 -68 -55 -68h-25q9 22 9 45q0 39 -24.5 68.5t-62.5 36.5q21 -33 21 -102q0 -25 -3 -48h-75q-4 23 -4 48q0 69 22 102q-38 -7 -63 -36.5t-25 -68.5q0 -23 10 -45h-122l6 9q4 5 3 8.5t-4 5.5l-4 2h-49q-17 -1 -7 -18l5 -7h-121
q10 22 10 45q0 39 -25 68.5t-63 36.5q22 -33 22 -102q0 -25 -4 -48h-75q-3 23 -3 48q0 69 21 102q-37 -7 -62 -36.5t-25 -68.5q0 -23 9 -45h-23q-14 0 -24 4.5t-16 11t-10 14.5t-5.5 16t-1.5 15v11v4v217q16 91 77 62q14 -7 24 -16l70 -77q23 -19 56.5 -30t55.5 -12l21 -1
h283q25 0 53 13.5t44 26.5l16 13l69 74q14 11 25.5 11.5t18.5 -6.5t13 -18.5t9 -23.5t5 -24t2.5 -18.5t0.5 -7.5v-191z" />
    <glyph glyph-name="uniE60B" unicode="&#xe60b;" 
d="M878 896h-732q-60 0 -103 -43t-43 -103v-732q0 -60 43 -103t103 -43h732q60 0 103 43t43 103v732q0 60 -43 103t-103 43zM277 661q27 0 46 -17t19 -41.5t-19 -41.5t-46 -17t-46 17t-19 41.5t19 41.5t46 17zM331 311q-6 -20 -11 -31.5t-10 -22t-22 -46.5t-38 -82l-99 62
q13 11 32 29t55 57t46 60q10 24 4 40.5t-18 24.5l-12 9l-76 47l41 63q43 -32 57 -44t43 -41q21 -21 22 -53.5t-14 -71.5zM867 242q-4 -37 -20 -63t-38.5 -38.5t-49 -19t-52.5 -5.5t-47 3.5t-34 5.5l-13 3l13 52l54 -12q79 -5 90 60q1 6 1 22v255q1 140 -256 48l38 -10
q-4 -15 -31 -49h220v-44h-124v-56h124v-45h-124v-94q29 10 51 26l-11 41l59 18l48 -119l-72 -30l-13 48q-79 -61 -215 -58q-89 -2 -96 88q-2 28 3 53l3 2h88q0 -4 -2 -20t-1.5 -27t5.5 -18q9 -15 45 -17h2h2v107h-127v45h127v56h-32l-55 -56l-38 34q32 34 71 104
q-18 -7 -42 -18q-24 -29 -49 -54q0 -1 -15.5 8t-31.5 18l-16 9q30 25 55.5 69.5t36.5 74t11 32.5l91 -26q-8 -17 -23 -44q74 21 135.5 28.5t100 4t68.5 -15t44.5 -23.5t24 -27.5t11 -21t1.5 -9.5q1 -4 2.5 -13t5 -38.5t4.5 -61.5t0 -82t-7 -100z" />
    <glyph glyph-name="uniE60C" unicode="&#xe60c;" horiz-adv-x="1025" 
d="M871 455q-11 0 -19 -8t-8 -19v-253q0 -11 8 -19v0q8 -8 19 -8h73q11 0 19 8v0q8 8 8 19v253q0 11 -7 18l-1 1q-8 8 -19 8h-73zM583 69q-2 0 -3 1q-15 8 -31 4q-18 -5 -27 -21q-5 -9 -6 -20v-2q0 -6 2 -11q4 -16 18 -25l4 -2q15 -8 31 -4q17 5 26 20l2 2q7 15 3 32
q-4 16 -19 26zM609 116q35 -20 45 -59t-10 -74v0q-20 -35 -59 -45.5t-74 9.5v1q-34 19 -45 57h-173h-3q-50 1 -106 16t-99 42q-85 55 -85 140v225q0 34 24 57.5t57 23.5h11q14 153 123 263q59 58 136.5 91t164 33t164.5 -33t136 -91q110 -109 123 -263h5q33 0 57 -24
q1 0 2 -2q22 -23 22 -55v-253q0 -33 -24 -57t-57 -24h-73q-33 0 -57 24t-24 57v253q0 34 23.5 57.5t57.5 23.5h14q-13 131 -107 225q-51 51 -119 79.5t-143.5 28.5t-143 -28.5t-119.5 -79.5q-93 -94 -107 -225h8q34 0 57 -24l2 -2q22 -23 22 -55v-228q0 -12 -8 -19.5
t-19 -7.5t-19 7.5t-8 19.5v228q0 10 -7 18l-1 1q-8 8 -19 8h-73q-11 0 -19 -8t-8 -19v-225q0 -56 60 -94q36 -24 85 -36.5t93 -14.5h1h173q4 12 10 22v0q20 35 59 45.5t74 -9.5v0z" />
    <glyph glyph-name="uniE60D" unicode="&#xe60d;" 
d="M379 77l-306 334q-9 9 -8.5 22t10.5 22l27 24q9 9 22 8.5t22 -10.5l249 -272q8 -8 15 0l468 491q9 10 22 10t22 -8l27 -25q9 -9 9.5 -22t-8.5 -23l-526 -552q-9 -10 -22.5 -9.5t-22.5 10.5z" />
    <glyph glyph-name="uniE60E" unicode="&#xe60e;" 
d="M757 456l-300 -215q14 -2 39 -5t103.5 -7.5t159.5 -3.5l-8 36l258 224q8 6 5 16t-13 11l-341 29l-134 315q-4 10 -14 10t-14 -10l-134 -315l-341 -29q-10 -1 -13 -11t5 -16l258 -224l-77 -334q-3 -10 5.5 -16t17.5 -1l293 177l293 -177q4 -2 8 -2q5 0 9 3q9 6 6 16
l-61 264q12 6 25.5 14.5t21.5 14.5l8 6q-2 -1 -7 -3t-25 -7t-45 -9.5t-69 -9t-95.5 -6.5t-126 -0.5t-158.5 7.5l298 216q-1 2 -13.5 5.5t-109 12t-263.5 13.5q-3 1 2 2q50 15 191 25q210 15 356 -16z" />
    <glyph glyph-name="uniE60F" unicode="&#xe60f;" 
d="M164 291l605 605l254 -254l-605 -605zM6 -121l376 122l-254 254z" />
    <glyph glyph-name="uniE610" unicode="&#xe610;" 
d="M918 -40h1l-82 610q-1 8 -6.5 13t-13.5 5h-142v81q0 68 -48 115.5t-115 47.5t-115 -47.5t-48 -115.5v-81h-142q-8 0 -13.5 -5t-6.5 -13l-82 -610h1v-2l-1 -1q0 -8 6 -14t14 -6h774q8 0 14 6t6 14l-1 1v2zM390 669q0 51 35.5 86.5t86.5 35.5t86.5 -35.5t35.5 -86.5v-81
h-244v81zM225 547h124v-87q-20 -12 -20 -35q0 -17 12 -29t28.5 -12t28.5 12t12 29q0 23 -20 35v87h244v-87q-20 -12 -20 -35q0 -17 12 -29t28.5 -12t28.5 12t12 29q0 23 -20 35v87h124l66 -488h-706zM149 -23l5 41h716l5 -41h-726z" />
    <glyph glyph-name="uniE611" unicode="&#xe611;" 
d="M995 489q0 3 -1 6l-65 207v94q0 9 -6.5 15t-15.5 6h-794q-9 0 -15 -6.5t-6 -14.5v-87q0 -1 -1 -2l-67 -211q-1 -3 -1 -6l-1 -49q0 -35 16.5 -65t44.5 -49q-2 -4 -2 -8v-342q0 -9 6.5 -15t15.5 -6h809q9 0 15 6t6 15v293q0 9 -6 15t-15 6t-15.5 -6t-6.5 -15v-272h-766v311
q18 -5 35 -5q37 0 68 17.5t49 47.5q19 -30 49.5 -47.5t67.5 -17.5q36 0 66.5 17.5t49.5 46.5q18 -29 49 -46.5t67 -17.5t67 17.5t49 47.5q19 -30 50 -47.5t67 -17.5q57 0 97 40.5t40 96.5v48zM135 774h751v-52h-751v52zM858 347q-39 0 -66.5 27.5t-27.5 66.5q0 9 -6.5 15.5
t-15.5 6.5h-1q-9 0 -15.5 -6.5t-6.5 -15.5q0 -39 -27.5 -66.5t-66.5 -27.5t-67 27.5t-28 66.5q0 9 -6 15.5t-15 6.5t-15.5 -6.5t-6.5 -15.5q0 -39 -27.5 -66.5t-66.5 -27.5t-67 27.5t-28 66.5q0 9 -6 15.5t-15 6.5h-2q-9 0 -15 -6.5t-6 -15.5q0 -39 -27.5 -66.5t-67 -27.5
t-67 27.5t-27.5 66.5v45l62 193h764l61 -194v-44q0 -39 -27.5 -66.5t-66.5 -27.5z" />
    <glyph glyph-name="uniE612" unicode="&#xe612;" 
d="M512 896q-30 0 -84.5 -2t-189 -17.5t-238.5 -43.5v-392v-56v-1q1 -12 4 -31.5t21 -70t47 -97.5q58 -96 154 -170q118 -91 286 -143q168 52 286 143q95 73 153 169q29 47 47 98t21.5 70.5t4.5 31.5v1v56v392q-104 28 -238.5 43.5t-189 17.5t-84.5 2zM981 441v-55
q-8 -85 -66 -180q-55 -89 -143 -157q-108 -83 -260 -132q-153 49 -260 132q-89 69 -144 158q-57 95 -65 179v55v359q97 23 220.5 36.5t172 15t76.5 1.5t76.5 -1.5t172 -15t220.5 -36.5v-359zM352 466v149h192v-43h-149v-42h149v-43h-128v-171h43v128h213v-128h43v171h-128
v43h170v42h-170v43q119 13 170 21l-42 43q-28 -4 -54 -7.5t-58.5 -6t-51.5 -3.5t-60 -2t-54.5 -1t-65 -0.5t-62.5 -0.5v-192q2 -72 -7.5 -115t-34.5 -77q19 -57 21 -64q68 90 64 256zM727 212q12 17 30 40l-59 28q-43 20 -76 36l-34 15q-1 3 -1 92h-43v-64q-3 -35 -56 -64.5
t-115 -42.5q10 -15 13 -21t6 -21q37 8 80.5 29.5t68.5 38.5l24 17q86 -44 162 -83z" />
    <glyph glyph-name="uniE613" unicode="&#xe613;" 
d="M1024 111v504q0 81 -58 138.5t-139 57.5h-630q-81 0 -139 -57.5t-58 -138.5v-630q0 -82 58 -139.5t139 -57.5h630q72 0 126.5 46t67.5 116q-283 122 -397 176q-71 -86 -147.5 -129.5t-177.5 -43.5q-105 0 -169 56.5t-55 137.5q2 24 9.5 46t26.5 47t46.5 42t74.5 26t107 3
q23 -2 43 -4.5t40 -6.5t32.5 -7t33.5 -9.5t30.5 -9.5t35 -11.5t35.5 -11.5q35 64 57 139h-398v40h197v70h-240v44h240v102q0 2 1 4.5t6 7t13 4.5h98v-118h256v-44h-256v-70h209q-29 -116 -85 -213q27 -10 111 -36.5t155 -48.5l71 -21v0zM284 20q-36 0 -65 7.5t-46.5 19
t-30.5 26t-17.5 29.5t-7 28.5t0.5 23.5q7 34 42.5 62.5t92.5 28.5q131 0 284 -75q-55 -72 -120 -111t-133 -39z" />
    <glyph glyph-name="uniE614" unicode="&#xe614;" 
d="M623 77l-1 -13q0 -51 35.5 -86.5t86 -35.5t86 35.5t35.5 86t-35.5 86t-86.5 35.5q-31 0 -58 -15t-44 -41l-258 202q14 27 14 55q0 16 -6 35l263 205q37 -40 89 -40q51 0 86.5 36t35.5 86t-35.5 86t-86 36t-86 -36t-35.5 -86q0 -16 5 -35l-263 -205q-36 39 -89 39
q-50 0 -85.5 -35.5t-35.5 -86t35.5 -86t85.5 -35.5q40 0 74 25z" />
    <glyph glyph-name="uniE615" unicode="&#xe615;" 
d="M1014 377l-497 466l-2 2l-500 -467q-8 -7 -8.5 -18.5t6.5 -19.5q8 -8 19.5 -8t19.5 7l463 432l463 -433q7 -8 18 -8q12 0 20 9q7 8 7 19t-9 19zM860.5 368q-11.5 0 -19 -8t-7.5 -19v-367h-188v257h-263v-257h-187v367q0 11 -8 19t-19.5 8t-19 -8t-7.5 -19v-421h295v258
h155v-258h296v421q0 11 -8 19t-19.5 8zM692 709h142v-126q0 -11 7.5 -19t19 -8t19.5 8t8 19v180h-196q-12 0 -19.5 -8t-7.5 -19.5t7.5 -19t19.5 -7.5z" />
    <glyph glyph-name="uniE616" unicode="&#xe616;" 
d="M611 663v-138l-31 -270h-4q-5 -19 -23 -31.5t-41 -12.5t-41 12.5t-23 31.5h-4l-31 270v138v1v0v1v7h1q3 35 31.5 59t66.5 24t66.5 -24t31.5 -59h1v-7v-1v0v-1zM512 162q34 0 58 -22t24 -52.5t-24 -52.5t-58 -22t-58 22t-24 52.5t24 52.5t58 22z" />
    <glyph glyph-name="uniE617" unicode="&#xe617;" 
d="M227 709v-81h731v81h-731zM65 627h81v81h-81v-81zM227 344h731v81h-731v-81zM65 343h81v81h-81v-81zM227 60h731v81h-731v-81zM65 59h81v81h-81v-81z" />
    <glyph glyph-name="uniE618" unicode="&#xe618;" 
d="M512 833v-1v1l-388 -220v-5v-13v-22v-412v-4l388 -220v0l388 220v4v412v22v13v5zM512 783l335 -190l-145 -83l-333 191zM490 0l-322 183v365l322 -183v-365zM512 403l-334 190l146 83l334 -191zM856 183l-321 -183v365l321 183v-365z" />
    <glyph glyph-name="uniE619" unicode="&#xe619;" 
d="M512 265l416 347q-1 0 -3.5 0.5t-3.5 0.5h-818q-1 0 -3.5 -0.5t-3.5 -0.5zM958 576q0 4 -2 11l-295 -246l295 -295q2 7 2 9v521zM68 587q-2 -7 -2 -11v-521q0 -1 2 -9l295 295zM633 318l-109 -91q-5 -4 -12 -4t-12 4l-108 90l-298 -297q7 -2 9 -2h818q2 0 9 2z" />
    <glyph glyph-name="uniE61A" unicode="&#xe61a;" 
d="M-57 949zM743 420q-16 4 -21 10.5t-2 11.5l3 6q2 1 3 3.5t4 9.5t5 14t3 17.5t-0.5 20t-6.5 20.5t-14 20q-16 15 -40.5 19.5t-49.5 0.5t-47 -10t-36 -11l-15 -7q-11 -3 -18 -4t-11 0.5t-6 3t-1.5 7.5t1 10.5t2.5 14t3 15.5q0 13 -1.5 24.5t-7 26t-16 23t-26.5 14
t-41.5 3.5t-57.5 -13q-38 -13 -78 -39t-69 -54.5t-53.5 -54.5t-37.5 -43l-12 -18q-36 -47 -54 -94.5t-17 -71.5v-23q7 -53 33 -95t62 -68t84.5 -44.5t93 -26.5t94.5 -11q81 -7 169 12.5t163.5 66.5t106.5 114q19 38 19.5 72.5t-12 56t-31.5 38t-36 24t-31 9.5zM407 77
q-119 -5 -202.5 46.5t-83.5 131.5q0 78 83 135t203 62.5t203 -40t83 -123.5q0 -79 -84.5 -142.5t-201.5 -69.5zM375 383q-32 -3 -57.5 -15t-40 -26.5t-24.5 -32t-13.5 -34t-4.5 -30t-1 -21.5l1 -9v-4q0 -3 2 -13t6 -18.5t12.5 -18.5t21.5 -16q72 -36 135 -22t102 64
q15 18 20 46t-2 56t-24.5 51t-52.5 35.5t-80 7.5zM335 174q-7 -1 -13 -0.5t-11 2.5t-9.5 4t-8 6t-6.5 7.5t-4.5 9t-1.5 10.5q0 12 6.5 23.5t18 20t26.5 9.5q10 1 19.5 -0.5t16 -5.5t11.5 -9t7 -11.5t2 -14.5q0 -12 -7 -23t-19.5 -18.5t-26.5 -9.5zM429 254q-8 -6 -16 -5.5
t-12 7.5l-2 4q-1 3 -1 5v4q0 4 1 6l2 4q1 2 4 3l3 5q9 7 17 5.5t12 -8.5q3 -5 2.5 -10.5t-3.5 -10.5t-7 -9zM821 484q6 0 11.5 3.5t9 8.5t4.5 10q1 2 1 4q13 126 -88 143q-30 6 -55 1q-8 0 -13.5 -3.5t-9.5 -10t-4 -12.5q0 -11 8 -19t19 -8q86 20 92 -55q2 -19 -2 -35
q0 -11 8 -19t19 -8zM802 796q-49 11 -130 -5q-1 0 -3 -1l-1 -2l-1 -1q-12 -4 -19.5 -14.5t-7.5 -22.5q0 -16 11 -27t26 -11h3q2 0 5.5 1t8 1.5t9.5 2t9 3.5t15 2t27 -2t35 -8.5t38.5 -16.5t39 -27.5t33.5 -40.5q29 -65 11 -126q0 -1 -0.5 -2t-1.5 -5.5t-2 -8.5l-3 -10
q-1 -6 -1 -10q0 -10 5.5 -17t14 -9.5t19.5 -2.5q31 0 36 37q14 43 15.5 82.5t-5.5 69t-21.5 55.5t-33.5 44.5t-42 33t-44.5 23.5t-44.5 15z" />
    <glyph glyph-name="uniE61B" unicode="&#xe61b;" 
d="M618 818h-553v-552h553v552zM512 371h-342v342h342v-342zM512 213h106v-105h-106v105zM696 818h106v-105h-106v105zM65 213h368v-105h-368v105zM696 634h106v-368h-106v368zM249 634h184v-184h-184v184zM696 -50h264v263h-264v-263zM775 134h106v-105h-106v105zM854 371
h106v-105h-106v105zM854 818h106v-368h-106v368zM65 55h105v-105h-105v105zM249 55h395v-105h-395v105z" />
    <glyph glyph-name="uniE61C" unicode="&#xe61c;" 
d="M751 40l-248 131l-248 -130l47 277l-200 196l277 40l125 251l124 -251l278 -41l-202 -196zM503 211l202 -106l-38 225l163 158l-226 33l-100 205l-101 -204l-226 -33l163 -159l-39 -225zM764 24l-261 137l-261 -137l50 290l-210 206l291 42l131 264l130 -264l291 -43
l-211 -205zM503 182l236 -125l-45 263l192 186l-264 39l-118 240l-119 -240l-264 -38l191 -186l-45 -263zM717 88l-214 113l-214 -112l41 238l-173 169l240 34l107 217l107 -217l239 -35l-174 -169zM503 222l190 -100l-36 211l153 149l-212 31l-94 192l-95 -192l-212 -30
l153 -150l-36 -211z" />
    <glyph glyph-name="uniE61D" unicode="&#xe61d;" 
d="M522 303q-1 0 -38 62t-38 63q-9 20 -13 33t-2.5 27t13.5 21l-107 178q-11 -8 -21.5 -23.5t-18.5 -48t-6 -73t23.5 -103.5t63.5 -134q44 -75 91.5 -127t84.5 -75.5t71.5 -33t55 -8t30.5 8.5l-105 173q-17 -10 -34.5 4t-49.5 56zM784 137q-82 135 -83 135q-4 8 -13.5 10.5
t-17.5 -2.5l-50 -29l105 -174l50 29h1q8 5 10 14t-2 17zM508 546q9 5 11 14t-2 17l-85 139q-5 8 -14 10t-17 -2l-50 -29l107 -178z" />
    <glyph glyph-name="uniE61E" unicode="&#xe61e;" 
d="M747 638h-470v167h470v-167zM882 570v-368q0 -2 -2 -2h-100v-237h-536v237h-100q-2 0 -2 2v368q0 2 2 2h166v33h403v-33h167q2 0 2 -2zM681 67h-337v-36h337v36zM681 132h-337v-36h337v36zM681 200h-337v-36h337v36zM681 268h-337v-1h337v1zM815 335h-605v-68h34v34h536
v-34h35v68zM819 454q0 22 -15.5 37.5t-37 15.5t-36.5 -15.5t-15 -37.5t15 -37t36.5 -15t37 15t15.5 37z" />
    <glyph glyph-name="uniE61F" unicode="&#xe61f;" horiz-adv-x="1025" 
d="M840 507q0 88 -44 163t-119.5 118.5t-165 43.5t-165 -43.5t-119.5 -118.5t-44 -163q0 -87 44 -163l284 -408l285 408q44 75 44 163zM511 344q-68 0 -116 47.5t-48 115t48 115.5t116 48t116.5 -48t48.5 -115.5t-48 -115t-117 -47.5z" />
    <glyph glyph-name="uniE620" unicode="&#xe620;" 
d="M709 778v-154h155zM598 102q3 14 13 23l210 210q21 21 52 25v231h-180q-7 0 -12 5t-5 11v181h-377q-7 0 -12 -5t-5 -12v-755q0 -6 5 -11t12 -5h282q-6 14 -2 29zM634 101q-4 -3 -5 -7l-18 -74q-2 -9 4 -15q5 -5 12 -5q2 0 4 1l73 18q5 1 8 4l171 172l-78 78zM923 312
q-16 16 -39.5 16t-39.5 -16l-15 -16l78 -78l16 16q16 16 16 39t-16 39z" />
    <glyph glyph-name="uniE621" unicode="&#xe621;" 
d="M459 532zM595 697l74 174q-47 -37 -74 -37q-13 0 -30.5 9t-29.5 18l-12 9q-47 -36 -75 -36q-12 0 -30 8.5t-30 17.5l-12 9l76 -172h143zM449 680h148v-52h-148v52zM880 282q-20 52 -56.5 105t-73.5 91t-74 70t-57 46.5t-22 16.5h-148q-6 -4 -17.5 -10.5t-45 -30
t-64 -48.5t-67.5 -65t-64 -81t-45 -95t-18 -108q0 -43 11.5 -79.5t30.5 -62.5t44 -47.5t53 -34.5t55.5 -23t52.5 -15t44.5 -8t30.5 -3l12 -1q65 -5 121 0q0 -1 25 2.5t68.5 16.5t80.5 33q146 75 139 241q-2 52 -16 90zM634 248v-52h-89v-29h89v-52h-89v-65h-66v65h-88v52h88
v29h-88v52h62l-74 150h73l47 -101q9 -19 13 -34q5 16 13 34l48 101h73l-74 -150h62z" />
    <glyph glyph-name="uniE622" unicode="&#xe622;" 
d="M720.5 -62q-12.5 0 -21.5 8l-416 417q-9 9 -9 21t9 21l416 417q9 8 21.5 8t21 -8.5t8.5 -21t-9 -20.5l-395 -396l395 -396q9 -8 9 -20.5t-8.5 -21t-21 -8.5z" />
    <glyph glyph-name="uniE623" unicode="&#xe623;" 
d="M303.5 830q12.5 0 21.5 -8l416 -417q9 -9 9 -21t-9 -21l-416 -417q-9 -8 -21.5 -8t-21 8.5t-8.5 21t9 20.5l395 396l-395 396q-9 8 -9 20.5t8.5 21t21 8.5z" />
    <glyph glyph-name="uniE624" unicode="&#xe624;" 
d="M936 213q0 -114 -80.5 -195t-195 -81t-195.5 81t-81 195.5t81 195t195.5 80.5t195 -80.5t80.5 -195.5zM740 344l-79 -79l-83 82q-5 6 -12.5 6t-13.5 -6l-26 -26q-5 -5 -5 -12.5t5 -13.5l83 -82l-79 -79q-6 -5 -6 -12.5t6 -13.5l24 -24q6 -6 13.5 -6t12.5 6l79 78l83 -83
q6 -5 13.5 -5t12.5 5l26 26q6 6 6 13.5t-6 12.5l-83 84l79 78q5 6 5 13.5t-5 12.5l-24 25q-6 5 -13.5 5t-12.5 -5zM408 11h-271v768h640v-251q31 -12 61 -32v347h-768v-896h409q-28 18 -52 42q-4 4 -10.5 12t-8.5 10zM200 633h512v-64h-512v64zM200 428v-64h162q16 34 40 64
h-202zM329 223h-129v-64h135q-6 31 -6 64z" />
    <glyph glyph-name="uniE625" unicode="&#xe625;" 
d="M455.5 91q-95.5 0 -177 47.5t-129 129t-47.5 177t47.5 177t129 129t177 47.5t177 -47.5t129 -129t47.5 -177t-47.5 -177t-129 -129t-177 -47.5zM455.5 711q-110.5 0 -188.5 -78t-78 -188.5t78 -188.5t188.5 -78t188.5 78t78 188.5t-78 188.5t-188.5 78zM868 -22
q-22 0 -38 16l-184 184q-16 16 -16 38t15.5 38t38 16t38.5 -16l184 -185q16 -15 16 -37.5t-16 -38t-38 -15.5z" />
    <glyph glyph-name="uniE626" unicode="&#xe626;" 
d="M878 668.5q-11 15.5 -29.5 25.5t-46.5 10h-43q-23 0 -43 1v64q0 26 -12.5 45t-45.5 19h-295q-24 0 -41 -19t-17 -45v-63h-84q-24 0 -42 -9t-29.5 -23t-17 -30.5t-5.5 -29.5q0 -27 1 -32q0 -4 1 -5h58v-527q0 -27 9 -48t24.5 -36t37 -23t46.5 -8h420q26 0 46.5 8.5
t34.5 23t21.5 33.5t7.5 39v538h62v6q0 3 0.5 7.5t0.5 11.5q0 15 -4 33t-15 33.5zM363 769h295v-65h-295v65zM364 98q0 -42 -30 -42q-16 0 -22 10t-6 32v475h58v-475zM539 98q0 -22 -5.5 -31.5t-21.5 -9.5q-31 0 -31 41v475h58v-475zM717 100q0 -22 -5.5 -31.5t-22.5 -9.5
q-31 0 -31 41v473h59v-473z" />
    <glyph glyph-name="uniE627" unicode="&#xe627;" 
d="M165 415h696v-58h-696v58zM484 734h58v-696h-58v696z" />
    <glyph glyph-name="uniE628" unicode="&#xe628;" 
d="M310 632h-70v-70h70v70zM806 421h-424v-71h424v71zM806 632h-424v-70h424v70zM310 421h-70v-71h70v71zM99 880v-990h850v990h-850zM877 -40h-707v850h707v-850zM310 208h-70v-70h70v70zM806 208h-424v-70h424v70z" />
    <glyph glyph-name="uniE629" unicode="&#xe629;" 
d="M576 489h32v-274h-32v274zM482 489h47v-274h-47v274zM401 489h33v-274h-33v274zM505.5 864q-95.5 0 -182.5 -37t-149.5 -100t-100 -149.5t-37.5 -182t37.5 -182.5t100 -150t149.5 -100t182.5 -37t182.5 37t149.5 100t100 150t37.5 182.5t-37.5 182t-100 149.5t-149.5 100
t-182.5 37zM352 172v360h307v-360h-307zM659 560h-307v34h108v24h91v-24h108v-34z" />
    <glyph glyph-name="uniE62A" unicode="&#xe62a;" 
d="M512.5 894q-103.5 0 -197.5 -40.5t-161.5 -108t-108 -161.5t-40.5 -197t40.5 -197t108 -162t161.5 -108t197.5 -40t197 40t161.5 108t108 162t40 197t-40 197t-108 161.5t-161.5 108t-197 40.5zM543.5 143.5q-15.5 -13.5 -35.5 -13.5t-35.5 13t-15.5 38q0 21 15 35.5
t36 14.5q22 0 36.5 -14.5t14.5 -35.5q0 -24 -15.5 -37.5zM670.5 457.5q-11.5 -21.5 -28 -37.5t-57.5 -53q-12 -11 -19 -18.5t-10.5 -14.5t-5 -13.5t-5.5 -23.5q-6 -35 -40 -35q-18 0 -30 11.5t-12 34.5q0 28 8.5 49t23.5 37t39 38q22 19 32 28.5t16.5 21.5t6.5 26
q0 27 -20.5 45.5t-52.5 18.5q-37 0 -54.5 -19t-29.5 -55q-12 -39 -44 -39q-19 0 -32 13.5t-13 29.5q0 32 20.5 65t60 55t92.5 22q50 0 87.5 -18.5t58 -49.5t20.5 -68q0 -29 -11.5 -50.5z" />
    <glyph glyph-name="uniE62B" unicode="&#xe62b;" 
d="M512.5 811q-115.5 0 -214 -57.5t-156 -156t-57.5 -214t57.5 -214t156 -155.5t214 -57t214 57t155.5 155.5t57 214t-57 214t-155.5 156t-214 57.5zM555 170h-85v86h85v-86zM555 341h-85v256h85v-256z" />
    <glyph glyph-name="uniE62C" unicode="&#xe62c;" 
d="M558 72q-3 13 -7 28q-3 14 -5 22q8 6 13.5 13.5t5.5 15.5q0 6 -4 13q-5 7 -10 12q-5 4 -14 11h-39q-8 -6 -14 -11q-4 -5 -8 -11.5t-4 -12.5q0 -5 6 -13t14 -15q-2 -7 -6 -20t-7.5 -28t-6 -28t-2.5 -19q0 -4 5.5 -11t14 -14t16.5 -12t12 -5t12 5t16 12t14 14t6 11
q0 5 -3 17q-2 11 -5 26zM512 805q-90 0 -172 -35t-141 -94.5t-94 -141.5t-35 -172t35 -172t94 -141t141 -94t172 -35t172 35t141 94t94 141t35 172t-35 172t-94 141.5t-141 94.5t-172 35zM196 94q-3 12 19.5 38.5t53.5 36.5q26 9 53 16t47 21q17 10 26 19.5t12.5 19
t3.5 19.5t-1 22q-1 19 -11.5 29t-24.5 21q-6 6 -11 16t-9 20q-3 11 -7 24q-6 2 -11 6t-10.5 11t-9.5 20.5t-3 24t4 18.5q4 9 10 16q-1 30 3 60q3 25 11.5 53.5t24.5 51.5q14 21 33 35t37.5 22t38 11t37.5 3q23 0 44 -5.5t39 -14t32 -19.5t23 -22q20 -25 29.5 -55.5
t13.5 -56.5q5 -32 4 -63q6 -4 9 -10q3 -5 5 -14t0 -21q-2 -17 -7 -27t-11 -15q-8 -6 -15 -9l-8 -24q-4 -10 -9 -20t-11 -16q-7 -6 -13.5 -10.5t-11 -9t-7.5 -11t-5 -16.5q-2 -12 -1.5 -24t6 -24.5t18 -23.5t34.5 -19q19 -8 42.5 -14t45 -14.5t38.5 -20.5q24 -18 33 -55
q-2 -11 -23 -31.5t-57.5 -43.5t-83.5 -43t-105 -27t-117 1t-124.5 44.5t-122.5 99.5z" />
    <glyph glyph-name="uniE62D" unicode="&#xe62d;" 
d="M513 831q-91 0 -174.5 -35.5t-143.5 -95.5t-95.5 -143t-35.5 -174.5t35.5 -174.5t95.5 -143.5t143.5 -96t174.5 -35.5t174.5 35.5t143.5 96t95.5 143.5t35.5 174.5t-35.5 174.5t-95.5 143t-143.5 95.5t-174.5 35.5zM513 8q-102 0 -188 50t-136 136.5t-50 188t50 187.5
t136 136t188 50t188 -50t136 -136t50 -187.5t-50 -188t-136 -136.5t-188 -50zM508 605h-70v-299h225v75h-155v224z" />
    <glyph glyph-name="uniE62E" unicode="&#xe62e;" 
d="M512 832q-91 0 -174 -35.5t-143 -95.5t-95.5 -143t-35.5 -174t35.5 -174t95.5 -143t143 -95.5t174 -35.5t174 35.5t143 95.5t95.5 143t35.5 174t-35.5 174t-95.5 143t-143 95.5t-174 35.5zM695 246q9 -9 9 -22.5t-9.5 -22.5t-22.5 -9t-23 9l-137 138l-138 -137
q-10 -9 -23 -9t-22.5 9.5t-9.5 23t10 22.5l138 136l-138 138q-9 9 -9 22.5t9.5 22.5t22.5 9t23 -9l137 -138l138 137q10 9 23 9t22.5 -9.5t9.5 -23t-10 -22.5l-138 -136zM695 246z" />
    <glyph glyph-name="uniE62F" unicode="&#xe62f;" 
d="M512 832q-91 0 -174 -35.5t-143 -95.5t-95.5 -143t-35.5 -174t35.5 -174t95.5 -143t143 -95.5t174 -35.5t174 35.5t143 95.5t95.5 143t35.5 174t-35.5 174t-95.5 143t-143 95.5t-174 35.5zM769 500l-290 -289q-10 -10 -23.5 -12t-25.5 5q-4 3 -8 7l-167 166
q-12 12 -12 29t12 28.5t29 11.5t28 -11l139 -138l261 260q11 12 28 12t29 -11.5t12 -28.5t-12 -29zM769 500z" />
    <glyph glyph-name="uniE630" unicode="&#xe630;" 
d="M944 -51q-10 0 -16 6l-864 864q-7 7 -7 17.5t7 18t16 7.5t16 -8l864 -864q7 -7 7 -17.5t-7 -17.5q-6 -6 -16 -6zM80 -51q-10 0 -16 6q-7 7 -7 17.5t7 17.5l864 864q16 16 32 0q7 -7 7 -17.5t-7 -17.5l-864 -864q-6 -6 -16 -6z" />
    <glyph glyph-name="uniE631" unicode="&#xe631;" 
d="M514 840q-93 0 -178 -36.5t-146.5 -98t-98 -146.5t-36.5 -178.5t36.5 -178.5t98 -146.5t146.5 -98t178.5 -36.5t178.5 36.5t146.5 98t98 146.5t36.5 178.5t-36.5 178.5t-98 146.5t-146.5 98t-179 36.5zM514 -31q-111 0 -205.5 55.5t-149.5 150t-55 206t55 206
t149.5 149.5t206 55t206 -55t149.5 -149.5t55 -206t-55 -206t-149.5 -150t-206.5 -55.5zM688 413h-141v141q0 9 -10.5 16.5t-21.5 7.5t-21.5 -7.5t-10.5 -16.5v-141h-142q-9 0 -16.5 -10.5t-7.5 -21.5t7.5 -21.5t16.5 -10.5h142v-142q0 -9 10.5 -16.5t21.5 -7.5t21.5 7.5
t10.5 16.5v142h141q9 0 16.5 10.5t7.5 21.5t-7.5 21.5t-16.5 10.5zM688 413z" />
    <glyph glyph-name="uniE632" unicode="&#xe632;" 
d="M764 206l7 3l3 2l2 2l2 1l3 4l1 -2l3 -2l2 -2l3 -2l6 -4h-32v0zM793 219l1 -3l4 1h1v1l2 2l2 3l1 2l1 3v1l1 1l-1 2v1h-1l-1 1h-2h-1h-26v4l-2 2l-1 1h-1l-1 -1h-1v-1h-1l-1 -2v-2l-2 -2l-2 -3l-2 -3v3l-2 2l-12 4l-1 1h-1h-1h-1v-1h-1l-1 -1v-1v-1v-1v-1h1v-1h1h1l1 -1
q1 0 4 -1l3 -1q3 -1 4 -2h1h2v-1v-1l1 -1l-3 -1l-4 -3l-3 -2l-4 -2q-2 -1 -5 -2l-1 -1v-1v-1v-1l1 -1v-1h1h1h1h1l5 2q3 1 5 3l2 1v-3l1 -2h-5h-1l-1 -1h-1l-1 -1v-1l-1 -1v-1l-1 -1v-18l1 -1v-1l3 -3h-7h-1l-1 -1h-1v-1v-1h-1v-1l1 -1v-1l1 -1h1h1h1h7l6 2l6 2l4 2l4 4l3 4
l2 5l1 6v1v1l-1 2h16v-1h1v-1v-13v-3l-4 2l-3 1q-2 1 -3 1h-1l-2 1h-1h-1h-1h-1l-1 -2v-2v-1v-1h1h1v-1l3 -1l3 -1l3 -1l3 -1l3 -1l3 -2l3 -1l3 -2l3 -1l2 2v3l-2 2l-8 4l2 2h1v1h1v1v1v16v1v1l-2 3l6 -1h3l1 2v1v1v1l-1 1h-1l-4 2l-4 1l-4 2l1 -1l-5 4l-2 2l-2 2l-2 2l1 1
v1h12l-1 -1q-1 -1 -1 -2l-2 -2v-1v-1v-1v0zM794 215v0v0zM762 217l-1 4h2l1 1q2 1 2.5 2t2.5 3h8v-2l-2 -2l-1 -2l-2 -2l-3 -2l-3 -2l-3 -1l-4 -1l3 4v0zM773 183l1 2l1 2v-2l-2 -2v0zM770 199v-2l-1 -1v-4l-2 -4l-2 -3l-3 -3l-3 -2l-8 -2l2 3h1v1v1v15v1v0h1h15v0zM714 210
h-29l2 2l2 2l1 1l1 3l1 2l1 2v2v5h14v-11l1 -2v-2l1 -1v-1h1l4 -2v0zM705 193l-2 -2l-3 -3l-2 2l-1 1q-1 1 -2 3l-1 1l-3 4l-2 3h23l-2 -2l-1 -2l-1 -2l-1 -1l-2 -2v0zM678 208l-2 -1q0 -1 -1 -1.5t-2 -0.5v12h9l-1 4v1v1h-1h-1h-6v12v1v1l-1 1h-1h-1h-1h-1h-1v-1l-1 -1v-1
v-12h-6h-1h-1v-1v-1v-2v-1l1 -1h1h6v-16l-2 -1l-3 -2q-2 -1 -3 -1v-1l-1 -1v-1v-1h1v-1l1 -1l1 -1h1h1l2 2l2 1v-15l-3 1h-3l-1 -2v-1v-1v-1l1 -1v-1h1h1l2 -1h2h2h2l2 1l1 3l1 -2l1 -1h1v-1h1h1h1l3 1l3 1l3 1h3l2 2l3 1l4 2l2 -1l2 -2l3 -1l3 -1l3 -1l3 -1l3 -1h4h1h1h1
l1 1v1v1v1v1v1h-1l-1 1h-1h-3l-2 1l-2 1h-3l-2 1l-2 1l-3 2l2 2l2 2l2 3l1 2l2 2l1 3l1 2l1 2v2v1v1v1h-1v1l-1 1l-4 2h9h1h1l1 1l1 1v1v1v1h-1v1h-1v1h-1h-1h-6h-1v13l-1 1v1v1l-1 1l-1 1h-1h-1l-1 1h-17l-1 -1h-2h-1l-1 -1v-1l-1 -1v-1v-1v-5v-2l-1 -2v-1l-1 -2l-2 -3v1
l-4 -3h-1v-1v-1h-1l1 -1v-1v-1l1 -1v0zM682 217v0v0zM673 176v21q5 2 6 3l1 1l3 3l-1 -4v-1v-1v-1h1l3 -4l3 -4l2 -3l2 -2l-4 -2l-2 -1l-5 -1l-5 -2h-1l-3 -2v0zM498 215v-6v-1h-1h-20v7h21v0zM477 228v0v1h1h19l1 -1v0v-6h-22l1 6v0zM489 184l-4 1l-3 -1l-1 -2l-1 -2l-2 -1
l-1 -1v23h4l1 -4l2 -5l2 -4l3 -4v0zM469 199v-14l-4 1l-2 -1l-3 -3l-3 -3v18h9h1v1l2 1v0zM469 213v-10l-2 1h-1h-8v8h7h1v1h1v1l1 2l-1 2v1h-1h-1h-13l3 6h12h1l2 1v-8l-1 -2v-3v0zM501 201q-3 -4 -6 -6v-1l-2 -2l-2 3q-1 1 -2 3v3h12v0zM506 197v1l-1 1v1l-4 1l3 1v1l1 1
v1v1v24v1v1l-1 1v1l-1 1h-1l-1 1h-1h-25h-1l-1 -1h-1l-1 -1l-1 -1l-1 -2l-1 1h-1h-1h-9v3h1v1l-1 1v1l-1 1h-1h-1h-1h-1h-1v-1l-1 -1l-1 -4l-1 -2l-1 -3l-1 -3l-1 -3l-1 -2l-2 -3l-2 -2v-1v-1v-1v-1v-1l1 -1h3l3 1l1 2h2v-7h-6h-1l-1 -1h-1v-1v-1v-1v-1v-1l1 -1h1h1h6v-23
v-1l1 -1v-1l1 -1v-1h1h1h1h1h1l1 1l3 2l2 2l4 4l2 2v-5l1 -2v-1l1 -2l1 -1h1h1h2h2l2 2l3 2l1 2l3 2l1 1l1 1v1l1 3l2 -3l4 -3l4 -3l5 -2l3 -1l2 2v3l-2 2l-3 2l-4 2l-2 2l-2 2l5 5l1 1q1 1 2 1v1l1 1v1v0zM550 235h-1h-1h-1v-1l-1 -1v-1v-1v-1v-1l1 -1h1h1l1 -1h34l1 1h1h1
v1l1 1v1v1v1h-1v1l-1 1h-1h-1h-34v0zM533 236l-2 -4l-2 -4l-3 -3l-3 -4l-1 -1v-1v-1l1 -1l1 -1l2 -1l3 1l3 4l3 4l2 4l3 5l1 3l-2 2h-4l-2 -2v0zM528 196l2 3v-26l1 -1v-1l1 -1h1l1 -1l1 1h1l1 1v1l1 1v36l2 4q1 2 1 5l-2 3l-3 -1l-2 -2l-1 -2l-2 -2l-1 -3l-1 -2l-3 -4
l-3 -4l-2 -2l2 -3l2 -1l3 1v0zM543 215v-1v-1h1v-1h1v-1h1h1h26v-28v-1l-1 -1v-1v-1h-1v0l-1 -1h-1h-2l-3 1l-7 2h-1l-1 -1h-1l-2 -2v-3l3 -2l3 -1l4 -1h2h3l2 -1h2l2 1h2l1 1h1l1 1l1 2l1 1v2l1 2v2v29h7h1l1 1h1v1l1 1v1v1h-1v1l-1 1h-1l-1 1h-41l-1 -1h-1l-1 -1l-1 -1v-1
v0zM315 228h7l-3 -13v-2v-2v-1q0 -1 1 -2q1 -3 2 -5v-2l1 -3l1 -1v-2h-1v-1v-1h-1q0 -1 -1 -1l-2 1h-1h-1l-2 -1v36v0zM363 214l1 2v2l4 -3h3l3 2v4l-2 2l-3 1l-3 1l-3 2l-2 1l-2 2l-2 2l-2 2l-3 3l-1 1l-1 1h-2l-1 -1h-1l-1 -1q-1 -2 -4 -5v-1l-2 -1l-2 -2l-2 -2l-2 -2
l-6 -4l2 7v2v2v2l-1 1v1h-1h-1h-2h-11h-1h-1h-1l-1 -1v-1l-1 -1v-1v-1v-57v-1v-1h1v-1h1h1l1 -1v1h1h1l1 1v1v1v13h2q1 0 1 -0.5t1 -0.5h2h1h1l1 1h1h1l1 1h1l1 1v1l1 1v1v1l1 2v2v1l-1 2l-1 4l-1 3l-2 5v1v4l2 -2h1h1h1h1v1l3 1v-1q0 -1 1 -1v-1h1v-1h1h1h7l-2 -2l-1 -1v-1
v-1v-1q1 -4 2 -6q1 -5 1 -8l1 -5v-1l1 -1v-1h1h1h1h1l2 1v-3v-1l1 -2h-14l3 2v1l1 1v1q0 2 -1 2q0 3 -1 4v3l-1 2l-1 3l-2 5l-2 3v1h-1v1h-1h-1h-1h-1l-1 -1l-1 -1v-1q0 -1 3 -7l2 -5l2 -5l1 -5v-1l1 -1l2 -2h-10h-1l-1 -1v0l-1 -1v-1v-1v-1h1v-1l1 -1h1h38h1h1v1h1v1v1l1 1
h-1v1v1l-1 1h-1h-1h-10q1 1 1 1.5t1 1.5l2 6l1 3l1 3l1 3v4l1 3v3v1v1l-1 1v1h-1l-1 1h-2l-1 -2q-1 0 -1 -1l-1 -4l-1 -7l-1 -3l-2 -10q0 1 -0.5 4t-0.5 4t-0.5 3t-0.5 3l-1 5l-1 4l-1 1l-2 3h14l1 2v0zM362 212v0v0v0zM339 219l3 3l1 1l2 2l2 3v1l1 1l3 -2l1 -2l2 -1
q1 -1 2 -3q3 -2 5 -3h-22v0zM248 219v10v1h1v0h31v-1h1v-10l-1 -1h-31l-1 1v0v0zM237 200l2 -1l1 -1h18l-2 -2l-2 -2l-3 -3l-3 -2l-3 -2l-3 -2l-6 -3v18h1zM241 232v-16v-1v-1l1 -1h1v-1l1 -1h1h1h14v-6h-20h-1h-1l-2 -2v17q1 0 1.5 1.5t0.5 2.5l3 8v0zM273 195l-3 3h20h1v1
h1l1 1v1v1v1l-1 1l-1 1h-1h-22v6h14h2h1l1 1l1 1l1 1v1v1v15v1v1l-1 1l-1 1v1h-1l-1 1h-2h-35h-2l-1 -1h-1v-1l-2 -2l-1 3v1l-3 1h-1h-1l-1 -1l-1 -1v-1l-1 -1v-3l-1 -4l-1 -3l-1 -3l-2 -3l-1 -2l-2 -3l-2 -2v-1l-1 -1v-1v-1l1 -1l1 -1l2 -1l4 2v-33v-1l1 -1v-1h1l1 -1h1h1
v1h1h1v1v1h1v1v4l2 -2h1h1h1l3 2l3 2l3 2l3 3l3 2l4 4v-18v-1l1 -1l1 -1h1h1h1v1h1v1l1 1v18l3 -2l2 -3l3 -2l3 -2l3 -2l3 -2l4 -3h3l2 3v3l-1 2l-5 2l-3 2l-4 2l-3 2l-3 3l-2 2v0zM629 204v2v1l-1 1l-1 1l-1 1h-1h-1h-1h-1l-1 -1l-1 -1l-1 -1l-1 -2v-1v-1l1 -1v-1l1 -1h1
l1 -1h1h1h1h1l1 1h1v1l1 1v1v1v0zM413 204v2v1l-1 1h-1v1l-1 1h-1h-2h-1h-1l-1 -1l-1 -1v-1h-1v-2v-1v-1v-1l1 -1v-1h1l1 -1h1h1h2h1l1 1l1 1l1 1v1v1v0zM963 312q0 -15 -11 -26.5t-27 -11.5h-826q-16 0 -27 11.5t-11 26.5v259q0 16 11 27t27 11h826q16 0 27 -11t11 -27
v-259v0zM475 432h-18v-7h-18v15h31v15h-31v11h36v16h-95v-16h36v-11h-31v-15h31v-15h-36v-16h95v23v0zM302 496h-53v16q0 3 -4 3h-21q-3 0 -3 -3v-16h-54q-7 0 -12 -5t-5 -13v-58q0 -7 5 -12t12 -5h54v-25q0 -4 3 -4h21q4 0 4 4v25h53q7 0 12.5 5t5.5 12v58q0 8 -5.5 13
t-12.5 5v0zM221 422h-46v54h46v-54v0zM295 422h-46v54h46v-54v0zM715 476h14q3 0 3 4v8h125v-8q0 -4 3 -4h14q1 0 2 1t1 3v10q0 6 -4.5 10.5t-11.5 4.5h-54v8q0 3 -3 3h-20q-3 0 -3 -3v-8h-54q-6 0 -10.5 -4.5t-4.5 -10.5v-10q0 -4 3 -4v0zM660 478q-4 0 -6 -2l-20 -40
q-1 -3 2 -3h20q4 0 6 3l20 40q1 2 -2 2h-20v0zM493 511h-131q-8 0 -13 -5.5t-5 -12.5v-97q0 -7 5 -12.5t13 -5.5h131q8 0 13 5.5t5 12.5v97q0 7 -5 12.5t-13 5.5v0zM487 397h-119v96h119v-96v0zM875 463h-26v11q0 3 -3 3h-18q-3 0 -3 -3v-11h-61v11q0 3 -4 3h-17q-3 0 -3 -3
v-11h-27q-3 0 -3 -3v-13q0 -3 3 -3h27v-8q0 -17 16 -25q10 -5 16 -7q-16 -7 -30 -7h-24q-3 0 -3 -3v-13q0 -3 3 -3h24q16 0 32 6q4 2 20 9q16 -7 21 -9q15 -6 32 -6h24q3 0 3 3v13q0 3 -3 3h-25q-14 0 -29 7q3 1 8.5 3.5t7.5 3.5q16 8 16 25v8h26q3 0 3 3v13q0 3 -3 3v0z
M825 438q0 -9 -8 -13q-9 -5 -23 -11l-22 11q-8 4 -8 13v6h61v-6v0zM569 433h20q3 0 2 3l-21 40q-1 3 -5 3h-20q-3 0 -2 -3l20 -40q2 -3 6 -3v0zM692 423h-66v66h61q3 0 3 3v13q0 3 -3 3h-149q-3 0 -3 -3v-13q0 -3 3 -3h61v-66h-66q-3 0 -3 -3v-14q0 -3 3 -3h66v-25
q0 -4 3 -4h21q3 0 3 4v25h66q3 0 3 3v14q0 3 -3 3v0zM992 578l-1 7l-2 6l-2 7l-3 5l-3 6l-4 5l-5 5l-4 4l-6 4l-5 4l-6 2l-6 3l-7 1l-6 1l-7 1h-826l-7 -1l-6 -1l-7 -1l-6 -3l-6 -2l-6 -4l-5 -4l-5 -4l-4 -5l-4 -5l-3 -6l-3 -6l-2 -6l-2 -6l-1 -7v-6v-381v-7l1 -6l2 -7l2 -6
l3 -6l3 -5l4 -6l4 -4l5 -5l5 -4l6 -3l6 -3l6 -2l7 -2l6 -1h7h826h7l6 1l7 2l6 2l6 3l5 3l6 4l4 5l5 4l4 6l3 5l3 6l2 6l2 7l1 6v7v381v6zM982 191q0 -24 -16.5 -40.5t-40.5 -16.5h-826q-24 0 -40.5 16.5t-16.5 40.5v380q0 24 16.5 40.5t40.5 16.5h826q24 0 40.5 -16.5
t16.5 -40.5v-380zM982 191z" />
    <glyph glyph-name="uniE633" unicode="&#xe633;" 
d="M961 389q0 -78 -60 -144t-163.5 -104.5t-225 -38.5t-225 38.5t-163.5 104.5t-60 144q0 88 75 160t197 105q63 17 135 17q91 0 164 -26q-28 2 -58 3q-109 1 -201.5 -31.5t-146.5 -89.5t-55 -124q-1 -52 43 -96.5t120.5 -72t168 -29.5t169.5 21t124.5 65.5t47.5 93.5
q0 51 -68 86.5t-165 35.5q-63 0 -116.5 -16.5t-84.5 -44.5l104 -60l138 80l62 -36q18 -11 18 -28t-19 -28l-167 -97q-14 -7 -31.5 -7t-31.5 7l-177 102q-33 20 -33 51q0 13 7 25q34 63 125 103t205 40q94 0 174 -28t127 -76t47 -105z" />
    <glyph glyph-name="uniE634" unicode="&#xe634;" 
d="M210 767l2 2q1 2 3 3.5t6 3t8 1.5q-4 -10 -16 -14q11 -1 14 -9q-8 -8 -18 4q6 -12 -6 -19q-8 5 0 18q-1 -2 -3 -4t-7 -4.5t-9 -1.5q0 7 17 14q-13 -1 -16 7q6 8 19 -2q-8 13 4 22q8 -7 2 -21v0zM424 561q20 -7 12 -15q-1 -1 -4 -2q-7 2 -15 8q0 -1 2 -5t2 -5.5t-1 -5.5
q-5 -3 -12 4q-2 1 -5 10q-2 -2 -8.5 -4.5t-11.5 1.5q-1 3 2 5t7.5 4t5.5 2q-4 -1 -10.5 2t-8.5 5q-3 3 2 5q10 4 22 -4q-1 1 -3 4.5t-2 5t2 6.5l4 1q4 0 8 -4t3 -11l10 6q7 4 9 -1q2 -3 -2 -6l-8 -6v0zM159 471q-3 -2 3 -17q-8 1 -14 0q6 15 -1 19q-9 4 -24 -1.5t-18 -3.5
q5 2 12.5 9.5t13.5 7.5q2 -1 8.5 -4t7.5 -3q0 8 1 9q2 -1 4 -4.5t2.5 -4t3.5 0.5t8 1.5t11 0.5q5 -2 11 -9.5t6 -13.5q-7 7 -15 10.5t-12.5 3t-7.5 -0.5v0zM695 549q14 -12 30 -15.5t23 -9.5q0 8 -15 26q23 -10 27 -15t-1 -16q-1 -4 0 -4.5t5 -0.5l6 2q4 0 8.5 -1t8.5 -4
q-4 0 -6.5 -1t-7 -3.5t-7.5 -4.5q-10 -5 -23.5 -4.5t-16.5 -4.5l-5 8q19 4 19 10q1 1 -9 2.5t-21.5 10t-14.5 25.5v0zM925 480q-1 11 2 17h-3q-3 0 -5.5 -0.5t-4.5 -2t-1 -3.5q1 -3 5.5 -5.5t6.5 -5.5v0zM582 612q-11 -2 -24 3q16 -13 12 -20q8 8 12 17v0zM560 590
q-13 -5 -20 4q6 3 7 11q4 -12 13 -15v0zM529 605q2 3 3 5q-2 -2 -5 -3l2 -2v0zM173 522q-11 14 -3 17q2 1 5 -1q4 -4 7 -12q0 1 0.5 4.5t1.5 6t3 2.5q5 1 7 -7q1 -3 -1 -10q3 1 10 -0.5t7 -6.5q-1 -3 -2 -2.5t-4 1t-10 -0.5q5 -1 8 -7t-1 -8.5t-8.5 1t-6.5 10.5
q4 -11 -4 -13q-3 0 -6 2t-3 5q0 7 3 10q-9 -2 -14 6q-3 5 2 5l9 -2v0zM557 518q-8 2 -17 -2.5t-15 -10.5l-5 -6q2 17 6 23q2 3 9 4t12.5 1.5t5.5 2.5l-1 9l8 -4q4 -1 8.5 8t9.5 10q9 1 28 -4q-16 -3 -26.5 -10.5t-8.5 -14.5q1 -2 3.5 -4t3.5 -3l2 -1l-18 -11v3q0 3 -1.5 6.5
t-3.5 3.5v0zM514 545q2 -2 4 -1q3 2 1 4q-1 1 -2.5 1t-1.5 1l-5 7q2 2 4 5l8 -3l1 -1q1 -2 2 -2q2 -1 3 1.5t-2 3.5q-1 0 -2 -0.5t-2 -0.5l-8 3v3v3l8 3q1 0 2 -0.5t2 -0.5q3 1 2.5 3.5t-3.5 1.5q-1 -1 -1.5 -2t-1.5 -1l-8 -3q-1 3 -4 5l5 7q1 1 2 1t2 1q2 2 -0.5 4t-3.5 -1
v-3q0 -1 -1 -1l-5 -7q-2 2 -6 2v9l1 1q1 1 1 3q1 2 -2 2.5t-3 -3.5l1 -2l1 -1v-9q-3 0 -6 -2l-5 7v2v3q-2 2 -4.5 0.5t-0.5 -3.5q1 -1 2 -1l2 -1l6 -8q-3 -2 -4 -4l-9 2l-1 1q-1 2 -2 2q-2 2 -3 -1t2 -3q1 0 2 0.5t2 -0.5l9 -2q-1 -2 -1 -4q0 -1 1 -2l-9 -3q-1 -1 -2 0t-2 0
q-3 0 -2 -3q0 -3 3 -1q1 0 1.5 1t1.5 2l9 3q1 -3 3 -5l-5 -8q-1 0 -2 -0.5t-2 -1.5q-2 -2 0.5 -3.5t3.5 0.5q1 1 0.5 2.5t0.5 2.5l5 7q3 -2 6 -2v-9q0 -1 -1 -2t-1 -2q-1 -3 2 -3t3 3q0 1 -1 2t-1 2v9q3 0 6 1l5 -7v-1v-3v0zM328 518q-1 1 -0.5 2.5t-0.5 1.5l-6 7
q-3 -1 -7 -1v-9q0 -1 1 -2t1 -2t-0.5 -2t-2 -1t-2.5 1t-1 2t1.5 2t1.5 2v9q-4 0 -7 2l-7 -7v-3v-2q-2 -2 -5 -0.5t0 3.5q1 1 2 1l2 1l7 8q-3 2 -4 5l-11 -3q-1 -1 -1.5 -2t-1.5 -1q-4 -2 -5 1t3 3q1 1 2.5 0t2.5 0l11 2q-1 2 -1 3.5t1 2.5l-11 3q-1 1 -2.5 0t-2.5 -1
q-4 1 -2.5 4t4.5 1q1 0 2 -1.5t2 -1.5l10 -3q1 3 4 5l-6 8q-1 0 -2.5 0.5t-2.5 0.5q-2 3 1 4q3 2 4 -1q1 -1 0.5 -2t0.5 -2l6 -7q3 2 7 2v9l-1 1q-1 1 -1 2t1 2t2.5 1t2 -0.5t0.5 -2t-1 -2.5l-1 -1v-9q4 0 7 -2l6 7v2q0 1 1 2q1 3 4 1t1 -4q-1 -1 -3 -1t-2 -1l-6 -7
q3 -2 4 -5l10 3q1 0 1.5 1t1.5 2q4 1 5 -2t-3 -3q-1 0 -2.5 0.5t-2.5 0.5l-10 -3q1 -1 1 -3t-1 -3l10 -3q1 0 2.5 0.5t2.5 0.5q4 -1 2.5 -3.5t-4.5 -1.5l-2 2l-1 1l-10 3q-2 -3 -5 -5l6 -7q1 -1 2.5 -1t2.5 -1t1 -2t-2 -2q-2 -2 -4 1v0zM266 497q16 -6 10 -11q-1 -1 -3 -2
q-6 2 -12 6q3 -11 2 -12q-3 -3 -9 3q-1 1 -4 8q-1 -2 -6.5 -4t-9.5 1q0 3 2 4.5t5.5 3t4.5 1.5q-6 -2 -15 6q-2 2 2 3q8 3 17 -3q0 1 -2 4t-2 4t2 4l3 1q3 0 6 -2q4 -4 3 -9l7 4q6 4 7 -1q1 -2 -1 -4l-7 -5v0zM839 680q2 6 6 9t6 1q4 -2 1 -6t-9 -6q5 2 10 1t4.5 -4.5
t-5 -4.5t-10.5 3q5 -4 5.5 -8.5t-3 -6t-5.5 2.5t-2 11q-1 -7 -4.5 -10t-6 -2t-3 3.5t2 5t8.5 5.5q-4 -2 -7.5 -2t-5.5 1.5t-2 3.5q1 3 6 3.5t10 -2.5q-4 3 -4.5 7.5t3.5 6.5q2 1 3.5 -0.5t2.5 -4.5t-1 -7v0zM999 520q6 7 13.5 8t9.5 -3q6 -7 -9 -9q-5 -1 -11 -1q10 -1 16 -5
t3 -9q-2 -4 -9.5 -1.5t-12.5 11.5q4 -9 2 -15t-8 -5t-6.5 6.5t4.5 14.5q-6 -7 -13 -8.5t-9 1.5q-9 10 9 12h10q-7 1 -12 3.5t-6.5 5t-0.5 4.5q3 4 10 1.5t13 -9.5q-4 4 -2 11.5t9 6.5q5 -1 5.5 -6.5t-5.5 -13.5v0zM952 594q2 8 6.5 12t8.5 2q5 -3 1 -8t-12 -9q7 3 13 2
t5.5 -6t-6 -5.5t-13.5 4.5q6 -5 7 -11t-4 -8t-7.5 3t-1.5 14q-2 -8 -6.5 -12t-8 -2.5t-4 4t3 6t11.5 7.5q-6 -2 -10.5 -2t-7 1.5t-1.5 3.5q1 5 7 5.5t13 -3.5q-5 3 -6 9.5t4 8.5q3 1 5 -0.5t3 -5.5t0 -10v0zM734 679q9 9 18.5 11.5t12.5 -3.5q5 -7 -4 -11.5t-23 -3.5
q12 -1 20 -7t4 -12q-4 -7 -13.5 -3.5t-16.5 15.5q5 -12 2 -20.5t-10.5 -7.5t-8 9t7.5 20q-9 -10 -19 -12.5t-12 2.5q-3 5 -2 9t8.5 6.5t20.5 2.5q-9 1 -16 4t-8.5 7t0.5 7q4 6 13.5 2t16.5 -14q-5 7 -2 17.5t12 8.5q4 0 6 -4t0.5 -10t-7.5 -13v0zM537 818q2 6 6.5 9.5
t7.5 1.5q10 -5 -5 -12q-2 -1 -4 -1q6 2 12.5 1t6.5 -5q0 -3 -2.5 -4t-7.5 -0.5t-10 3.5q4 -3 6.5 -6.5t2 -5.5t-3.5 -3q-5 -1 -8 2.5t-3 11.5q-1 -7 -5.5 -10t-7.5 -2q-11 5 3 12l6 2q-6 -1 -10.5 -1t-7 1.5t-2.5 3.5q1 3 7 3.5t14 -2.5q-5 2 -7 7.5t3 6.5q4 1 7.5 -2.5
t1.5 -10.5v0zM374 743q-1 7 -13 15t-24 9q7 4 13 5t9 1l2 -1q6 -1 12.5 -11t9.5 -9l9 6l-2 -10q0 -2 5.5 -2t12.5 -0.5t10 -4.5q9 -7 10 -27q-7 12 -21.5 19t-20.5 2q-2 -2 -2.5 -5t-0.5 -5l1 -3q-8 9 -20 12q11 4 10 9v0zM462 664q4 11 12 17t15 3q13 -7 -8 -19
q-5 -3 -12 -6q12 5 23 3.5t10 -9.5q-1 -7 -11 -8t-23 6q10 -8 11.5 -17t-6.5 -11t-12.5 4.5t-2.5 20.5q-3 -12 -11.5 -18t-13.5 -4q-16 7 3 19q6 4 15 8q-10 -3 -18 -3.5t-12 2t-3 6.5q1 6 12 7t23 -4q-8 4 -10 13.5t7 12.5q7 2 11.5 -4.5t0.5 -18.5v0zM304 674
q-4 6 -3.5 10t4.5 5q6 0 6.5 -5t-2.5 -10q3 5 8 7t8 -1q6 -6 -8 -9h-5q5 -1 9 -2.5t5.5 -3.5t0.5 -4q-5 -7 -18 6q4 -6 3.5 -10.5t-3.5 -4.5q-6 -1 -7.5 2.5t2.5 12.5q-4 -6 -9 -8t-7 1q-2 2 -0.5 4t5 4t8.5 2q-6 0 -11 3t-3 7q2 3 7 1.5t10 -7.5v0zM138 641q1 7 4.5 10
t6.5 1q3 -3 0.5 -7t-8.5 -6q6 2 10.5 1t4.5 -5t-4.5 -4.5t-10.5 3.5q5 -4 6 -9t-2 -6q-4 -2 -6.5 2t-1.5 12q-1 -7 -4.5 -10t-6 -2t-3 3.5t2 5.5t7.5 5q-6 -2 -10.5 -0.5t-4 5t5 3.5t10.5 -3q-4 3 -5.5 8t2.5 7q2 1 4 -0.5t3 -5t0 -8.5v0zM48 620q0 7 3.5 11t7.5 3
q5 -3 2.5 -7.5t-9.5 -8.5q6 3 12 3t7 -5q0 -3 -2 -4.5t-6.5 -1t-9.5 2.5q4 -2 6.5 -5.5t2.5 -6.5t-2 -4q-4 -2 -7.5 2t-4.5 12q0 -7 -3.5 -11t-7 -3t-4.5 3.5t1.5 6t8.5 6.5q-7 -3 -12.5 -2t-5.5 4q0 4 5.5 5t12.5 -2q-5 3 -7.5 8.5t2.5 7.5q3 2 6.5 -2t3.5 -12v0zM141 586
q4 10 12 14.5t13 0.5q11 -8 -8 -17q-5 -2 -11 -3q12 2 21 -1t8 -9q-1 -7 -10.5 -6.5t-20.5 8.5q9 -8 9.5 -17t-6.5 -9q-7 -2 -10.5 5t-1.5 20q-4 -11 -11.5 -15.5t-12.5 -1.5q-13 8 5 17q5 3 13 5q-9 -2 -16 -1t-10 4t-2 6q1 6 10.5 5.5t19.5 -7.5q-6 6 -7.5 15t7.5 11
q6 1 9.5 -5.5t-0.5 -18.5v0zM32 492q-6 0 -15.5 -11t-12.5 -23q-2 8 -3 14t-1 8l1 2q1 4 7.5 7.5t12 6.5t4.5 6l-5 9l10 -3q2 0 3 5t2 12t5 10q1 1 3 2t9 2.5t16 0.5q-13 -5 -21 -18t-4 -21q1 -1 4 -2t5 -1h2q-9 -6 -14 -17l-4 9q-2 2 -4 2v0zM611 708q-2 2 -10 -0.5
t-16 -5.5l-7 -3l8 16q2 3 12 3h11l1 8l5 -5q2 0 8 6t10 6q12 -6 21 -8q-32 -4 -31 -14l6 -8l-17 -6q2 9 -1 11v0zM883 691q13 -14 27.5 -19t20.5 -12q0 7 -12 28q20 -12 23.5 -17.5t-1.5 -17.5q-1 -3 -0.5 -3.5t3.5 -0.5h7q3 0 7.5 -1.5t6.5 -4.5q-3 0 -5.5 -0.5t-6.5 -3
t-7 -3.5q-10 -4 -22.5 -2t-15.5 -4l-4 9q18 3 19 8q0 1 -9 3.5t-19 12.5t-12 28v0zM339 673q-3 7 -7 10.5t-7.5 3.5t-5.5 -2q-4 -5 2.5 -11t13.5 -6q-10 0 -16 -4.5t-3 -9.5q2 -4 9 -2t13 10q-5 -8 -5.5 -14t2 -8.5t7 -2t6 7t-3.5 16.5q6 -10 12.5 -13t9.5 2q4 4 -1.5 9.5
t-15.5 7.5q11 -1 16.5 3.5t1.5 9.5q-3 5 -9.5 2.5t-12.5 -9.5q6 8 6 15.5t-7 7.5q-5 0 -7 -6.5t2 -16.5v0zM630 607q-15 22 -33 20q-5 -1 -9 -7q-3 11 -31 5q6 7 8.5 16.5t-2.5 12.5q-6 2 -11 -5.5t-7 -18.5q-3 11 -10 17.5t-12 3.5t-2 -12.5t11 -14.5q-22 2 -28 -6
q-5 -7 3 -12q-10 3 -14 -5q-9 2 -10 -10q-1 -8 -4.5 -8t-1.5 4q6 15 3 26q-21 -9 -18 -36q0 -3 -2 -4q-1 2 -2 3q2 21 -11 38q0 -2 -1 -3.5t-1 -2.5q-2 6 -8 6q2 -7 1.5 -19.5t3.5 -19.5q-9 2 -12.5 13.5t-9.5 15.5q0 -7 -6 -9t-10 1q8 1 11 7q-4 4 -13 5q7 2 12 9
q-6 -1 -7 3t4 7q-6 1 -9 -2q1 3 1 6q-3 0 -5 -3q2 3 1 7q-4 -1 -7 -8q1 6 -1 7q-7 -3 -10 -15l-3 7q-2 -2 -4 -9l-2 6q-5 -14 2 -26l4 -4q3 -3 3 -5q2 -6 -4 -10.5t-12 -5.5l-6 -2q13 14 12 27q-9 -2 -15 -10q5 14 3 20q-9 -4 -12 -14q-1 8 -4 12q-4 8 -16.5 6t-16.5 -16
q-1 2 -5.5 4t-5.5 2q0 -9 7 -20q-9 12 -19 14q2 -11 12 -22q-11 8 -18 5t-9 -9q0 7 -3 12.5t-6 7.5l-2 2q-9 -15 -8.5 -24t5.5 -15q-3 -12 -11 -7q-7 4 -2 10q4 5 -3 8q-5 3 -14 -4q10 8 3 14.5t-12 -2.5q-2 -3 -1 -9q-3 13 -13 10q-9 -2 -5 -10q1 -4 7 -8q-14 6 -18 -4
q-3 -8 8 -9q4 -1 10 1q-3 -3 -4.5 -7.5t3.5 -8.5q4 -2 7 2.5t4 9.5q3 -14 17 -8q4 1 6.5 -0.5t2.5 -4.5q0 -1 -1.5 -2.5t-4.5 -2t-9 1.5q3 -12 -5.5 -15t-14.5 5q-1 2 -7.5 5t-12.5 4l-6 1q2 -5 -2.5 -13t-10.5 -11t-11 1q-2 2 -1 4.5t3 4.5l1 3q7 8 -6 11q-17 2 -19 -8
q-7 3 -15 0q5 2 8 9.5t-2 10.5q-5 2 -10 -3.5t-6 -12.5q0 10 -4.5 16.5t-10.5 2.5q-4 -2 -2 -9.5t7 -11.5q-20 9 -22 -2q-1 -6 6.5 -8.5t14.5 -0.5q-6 -6 -7 -13t4 -9q6 -2 10 2t6 12q0 -6 3 -10q0 -1 -3 -5t-5 -6.5t-6 -4.5t-11 -4t-9.5 -3.5t-2.5 -5.5t4 -4.5t10 1.5t11 7
q11 11 16 0q4 -11 -6 -18q-3 -1 -16 2q-15 4 -14 -6q0 -9 13 -15l413 -287l385 273q6 4 14 11l24 -3q-1 1 -2 2.5t-2.5 5.5t0.5 6q10 19 50 5l-14 20q-2 4 -14.5 0.5t-14.5 -3.5q-2 3 -7 3l-6 7q-1 -5 -5 -10q-12 -4 -22 -4t-9 10q1 12 16 10q11 -2 18 3q0 1 2 1.5t2 1.5
q4 -8 10 -6q6 5 5 21q2 -6 10.5 -12t12.5 -2q2 4 -3 11t-14 10q3 0 6.5 0.5t9 3t4.5 7.5q-2 6 -11 4.5t-12 -4.5q2 5 1.5 14t-5.5 9q-6 1 -7.5 -6.5t-0.5 -15.5q-4 10 -12 15t-11 0q-3 -4 2.5 -11.5t11.5 -9.5q-9 -1 -20 -8.5t-21 -7.5q7 5 9.5 11.5t-1.5 11.5
q-3 5 -11.5 1.5t-11.5 -13.5q-1 7 -4.5 10.5t-6.5 0.5q-3 -2 -3.5 -7.5t-1.5 -6.5q1 1 3 1q14 -1 0 -20q-4 -4 -8 -7q10 8 19 10.5t11 -3.5q2 -7 -6 -11.5t-22 -3.5q12 -2 16.5 -9t-1.5 -11q-6 -6 -12.5 -2t-10.5 16q2 -11 -2.5 -19t-10.5 -8q-15 -1 -5 15q4 6 11 13
q-7 -6 -14 -9.5t-11 -3t-5 4.5q-1 5 7.5 10t20.5 5q-8 1 -13 7.5t1 13.5q5 4 12 0.5t8 -15.5q-1 10 3 18q5 7 6 17.5t-1 12.5q-2 5 -7 8t-8 2.5t-5 -0.5q-7 -3 -13 -9q-4 -4 -5 5q-1 5 1 7.5t4 3t7 1t6 0.5l3 -7q5 7 22 2.5t31 -0.5q5 1 11.5 4t8.5 3h9q-4 5 -9.5 7.5
t-9.5 3.5h-10q-4 1 -5 2t1 5q9 15 4.5 23.5t-30.5 28.5q1 -1 3 -5t3.5 -7.5t4 -9.5t2.5 -9.5t-1 -9.5q-6 11 -26 20t-35 31q0 -14 3.5 -25t9 -17.5t12 -11t12 -6.5t9 -4t3.5 -4q-2 -5 -20 -8q0 2 -1 6q-8 17 -24 21q-17 5 -29 -10t-32 -9q-12 3 -7 12q2 3 8 3t8 2l-2 3
q-2 3 -6 3q7 1 8 5q-5 -1 -6 2q6 2 6 4q-1 4 -10 6q-3 1 -1 2q4 4 2 7.5t-6 2.5q-2 -1 -9.5 -5t-12.5 -3q15 9 22 24q-6 1 -7.5 3t0 4.5t4.5 3.5q-8 -1 -19 -14t-14 -13q8 18 7 34q-13 -6 -17 -27q0 -5 -3 -5t-4 5q-3 16 -12 23q-7 -7 -5 -21q-7 14 -12 17q-7 -6 -10 -14
t-3 -13v-4q8 10 15 6q11 -5 -7 -15q-3 -2 -7 -4q9 4 17 2.5t7 -6.5q0 -6 -7.5 -7t-18.5 5q8 -6 9.5 -13t-5 -8.5t-10 3.5t-1.5 16q-3 -10 -9 -14.5t-11 -2.5q-13 6 6 17q4 1 8 3q-7 -2 -13 -2t-9 1.5t-3 4.5q1 5 9.5 6t17.5 -3q-6 3 -8 10t5 10v0zM538 700q1 -3 -2 -6.5
t-7 -5.5l-3 -3l26 -12q-1 11 3 16q11 14 54 -18l-14 33q-6 5 -20.5 4.5t-16.5 0.5l-1 12q-8 -5 -9 -8q-1 1 -12.5 12t-18.5 12q-14 -8 -30 -11q45 -11 51 -26v0zM728 749q7 3 12.5 2.5t5.5 -4.5q2 -4 -4.5 -4.5t-12.5 2.5q6 -3 9 -7.5t0 -7.5q-4 -3 -8 0.5t-5 11.5
q0 -7 -3.5 -11.5t-7.5 -1.5q-9 4 6 16q-8 -4 -13 -3.5t-6 3.5t0.5 5t6 2t11.5 -3q-5 3 -8 6t-3 5t2 4q3 2 7 -1.5t6 -10.5q0 5 3 9.5t8 2.5q2 -1 2.5 -3.5t-1.5 -5.5t-7 -6v0zM172 658q7 -19 21 -26.5t24.5 -7t10.5 -0.5q0 -3 -4 -6.5t-8 -6.5l-5 -2l7 -8q4 7 17 9t21 9
q3 2 6.5 6t6 5.5t6.5 2.5q-4 3 -9 3t-8.5 -1t-6.5 -2.5t-4.5 -0.5t-1.5 4q2 14 -3.5 18.5t-30.5 11.5l3 -2q3 -3 5.5 -5t5.5 -5.5t5 -7t2 -6.5q-8 6 -25.5 6.5t-34.5 11.5zM504 5q0 -22 -10.5 -38.5t-31.5 -16.5q-24 0 -35 16t-11 39t11 39.5t35 16.5q21 0 31.5 -16.5
t10.5 -39.5v0zM400 -60h15v25q12 -28 47 -28q28 0 43 19.5t15 49t-15 49t-43 19.5q-35 0 -46 -28v74h-16v-180zM628 -9q0 -17 -12.5 -28.5t-32.5 -11.5q-12 0 -21 7t-9 18q0 13 7.5 21t15 10t23.5 5q4 1 5 1q20 4 23 8l1 -30v0zM546 51q21 9 47 9q33 0 33 -18
q0 -7 -8.5 -10.5t-32.5 -6.5q-49 -7 -49 -46q0 -19 13 -31t32 -12q32 0 48 27v-23h15v92q0 42 -48 42q-14 0 -26.5 -2t-17.5 -5l-6 -2v-14zM115 -60h28v77q0 15 9 25t23 10q25 0 25 -30v-82h29v90q0 21 -12 32.5t-34 11.5q-25 0 -39 -16h-1v62h-28v-180zM259 48h70l-72 -88
v-20h115v23h-76l72 88v20h-109v-23zM669 -60h16v76q1 20 12 32.5t29 12.5q33 0 33 -39v-82h16v84q0 25 -10.5 37.5t-37.5 12.5q-13 0 -25 -7t-16 -19h-1v22h-16v-130zM800 -60h15v50l26 21l52 -71h20l-60 82l56 48h-21l-73 -63v113h-15v-180zM800 -60z" />
    <glyph glyph-name="uniE635" unicode="&#xe635;" 
d="M427 680q16 7 61 27t69 31q-6 16 -18 47.5t-18 47.5q-33 16 -95 14q-14 -5 -43 -14.5t-44 -14.5q7 -8 23 -23t23.5 -23.5t17.5 -22.5t16 -31t8 -38zM753 774q-44 46 -130 58l21 -51q7 -6 15.5 -9t20.5 -3.5t21.5 0.5t26 2.5t25.5 2.5zM289 564q9 10 26 29t25 29
q-1 11 -3.5 32.5t-3.5 32.5q-9 24 -18 32.5t-33 18.5q-10 1 -29 3.5t-29 3.5q-5 -5 -17 -14.5t-16.5 -14t-12 -14.5t-12.5 -22q-1 -11 -3 -32.5t-4 -32.5q31 -34 55.5 -44.5t74.5 -6.5zM666 680q-4 -26 -11 -79t-11 -80q48 17 105 18t105.5 -9.5t93.5 -29.5q-5 39 -29 88
t-29 64q-56 40 -159 36q-34 -5 -65 -8zM253 340v-7q50 -14 111 11.5t109 72.5t75.5 111.5t15.5 122.5q-48 -25 -81.5 -46.5t-55.5 -38.5t-43.5 -43.5t-35.5 -46t-42 -61t-53 -75.5zM87 564q-2 -5 -7.5 -24.5t-7.5 -26.5t-6 -24t-5 -28.5t-2.5 -28.5t-1.5 -34q17 -10 51 -29
t51 -29q9 19 20 41t24.5 48.5t20.5 40.5q-32 9 -58.5 25t-39 28t-39.5 41zM963 391q-7 3 -31.5 13t-32 13t-28.5 10.5t-34.5 10t-35 6.5t-44 4.5t-48.5 0.5q-89 -31 -145 -71t-84 -99.5t-23 -140t42 -189.5q12 -5 25 -8.5t28 -3t25 1t28 4.5t25 6t27 8t23 7
q-48 54 -67.5 112t-11 104t38 79t72.5 45t100.5 -5.5t113.5 -67.5l4 -7l3 -7q1 2 5 16t4.5 16.5t4 15t4 16.5t3.5 15.5t3.5 17.5t2 17t2 19t1 19t0.5 22zM116 152l7 -4l7 -3q1 18 3.5 54t3.5 54l-72 30q25 -66 51 -131zM376 253q-25 -2 -75.5 -7t-76.5 -7q-5 -44 -5 -78
t2.5 -68t2.5 -57q35 -26 52.5 -38t51.5 -27.5t70 -21.5q-5 24 -17.5 65t-17.5 66t-3.5 71.5t16.5 101.5zM745 224l-29 -21q-21 -12 -30 -30t-13 -50q13 -30 24.5 -46.5t33.5 -32.5q10 -1 32 -3.5t33 -3.5l58 58l3 36q2 24 4 36q-6 7 -18.5 21.5t-18.5 21.5q-4 1 -79 14z" />
    <glyph glyph-name="uniE636" unicode="&#xe636;" 
d="M147 343l-4 -24h129l6 24h-131v0zM476 319l4 24h-147l-5 -24h148v0zM557 441l-20 -98l-6 -24l-20 -98h-56h-147l-5 -23h238l32 145l20 98h56h230l-22 -98h-228l-52 -243h-56h-239l-4 -22h331l31 143l21 98h57h135l-20 -98h-137l-30 -143l-21 -98h-56h-389l52 241h-131
h-56l22 98l4 24l22 98h56h129l51 241h56h148l26 122h17h360l-21 -98h-322l-4 -24l-20 -98h-58h-146l-6 -23h240l4 23l22 98h56h229l-21 -98h-228l-26 -121h-56h-240l-5 -22h147h56v0zM557 441z" />
    <glyph glyph-name="uniE637" unicode="&#xe637;" 
d="M416 520q-24 47 -63 76.5t-81 35t-82 -4t-72 -38.5t-45 -70q-7 -46 -12 -93v-289l137 -128v353l8 35q33 96 136 118q34 7 74 5v0zM796 524q-18 37 -52 62.5t-72.5 34.5t-79 3t-73 -26t-52.5 -59t-19 -90q-5 -156 -138 -191q-50 -13 -94 -7q12 -40 38.5 -66t55 -35
t55.5 -12t44.5 -1.5t17.5 2.5q32 4 57.5 18.5t41 33t26.5 43.5t16 44t8 41t3 29v11q6 45 30.5 79t55 49.5t60.5 24.5t51 10l20 2v0zM822 764v-352q0 -4 -1 -10t-6.5 -23t-14 -33t-25.5 -34.5t-39 -31.5t-56.5 -20.5t-75.5 -5.5q24 -48 62.5 -77t80 -34.5t81 4.5t71 39
t44.5 70q14 33 16 91v289l-137 128v0zM822 764z" />
    <glyph glyph-name="uniE638" unicode="&#xe638;" 
d="M512 896q-104 0 -199 -40.5t-163.5 -109t-109 -163.5t-40.5 -199t40.5 -199t109 -163.5t163.5 -109t199 -40.5t199 40.5t163.5 109t109 163.5t40.5 199t-40.5 199t-109 163.5t-163.5 109t-199 40.5zM453 -11q-167 28 -259 154q-145 199 -37 421q43 89 126.5 146t168.5 65
v-185h-57q-61 0 -96 -35t-35 -96v-153q0 -59 35 -94t94 -35h15q12 0 13 -1q27 0 29.5 -2t2.5 -30v-155zM510 286h-108q-16 0 -21 5t-5 22v141q0 16 5 21t22 5h214q17 0 22 -5t5 -22v-141q0 -16 -5 -21t-22 -5h-107zM851 181q-91 -158 -284 -192v40v130q0 10 3.5 14t13.5 4
q18 -1 55 0q46 1 80 33t36 78q4 96 0 190q-2 47 -36.5 79t-83.5 33h-67v187q181 -31 273 -176q133 -208 10 -420z" />
    <glyph glyph-name="uniE639" unicode="&#xe639;" 
d="M129 385l3 -39l4 -36l9 -39l13 -33l17 -36l19 -29l10 -16l13 -13l23 -30l58 -45l33 -20l33 -16l35 -13l36 -10l20 -3l19 -3h79l35 6l39 10l33 13l36 16l29 20l16 10l13 13l30 22l23 30l22 29l20 29l16 36l13 33l10 39l3 16l4 20v78l-7 39l-10 36l-13 36l-16 32l-29 49
l-13 13l-23 26l-30 26l-29 23l-29 20l-36 16l-33 13l-39 10l-16 3h-19l-20 3h-20l-78 -6l-36 -10l-35 -13l-33 -16l-49 -30l-13 -13l-29 -26l-23 -26l-23 -29l-19 -33l-17 -32l-13 -36l-9 -36l-4 -20v-19l-3 -20v-19zM35 385l3 49l3 26l3 23l20 68l10 20l9 22l10 20l23 39
l13 19l16 20l30 33l16 16l16 13l20 16l19 13l20 13l19 10l43 20l42 16l23 6l23 7l22 3l26 3l49 4l49 -4l46 -6l68 -20l23 -9l20 -10l19 -10l42 -23l17 -13l19 -16l33 -29l32 -33l14 -20l26 -39l9 -19l23 -42l16 -43l4 -23l6 -22l3 -23l4 -26l3 -49l-3 -49l-7 -46l-10 -45
l-9 -23l-7 -23l-10 -19l-13 -20l-22 -42l-13 -17l-14 -19l-32 -33l-33 -32l-19 -13l-17 -13l-19 -13l-23 -10l-39 -23l-46 -16l-22 -7l-23 -3l-46 -7l-49 -3l-48 3l-27 4l-22 3l-46 10l-23 10l-19 6l-23 10l-20 13l-39 23l-39 26l-49 49l-13 16l-16 19l-13 17l-13 19l-10 23
l-19 39l-17 46l-13 45l-6 46zM780 352v-211h-234v68h160v78h-160v212h160v72h-160v68h234v-212h-159v-72h159v-3zM243 352v-211h235v68h-160v78h160v212h-160v72h160v68h-235v-212h160v-72h-160v-3z" />
    <glyph glyph-name="uniE63A" unicode="&#xe63a;" horiz-adv-x="1902" 
d="M0 809h425q9 0 23 -0.5t40 -6t33 -15.5h-79v-25l121 -1q20 -14 20 -24l-141 -2v-22h156q2 -1 5 -3.5t7 -9.5t2 -16h-486v-26l493 2q3 -20 3 -26h-496v-26l498 2q3 -15 -5 -26l-493 -4v-25l486 3q0 -19 -12 -25l-474 -3v-23l458 3q-1 -24 -18 -29l-440 -1v-24l404 3
q0 -2 -1 -4t-6 -7t-12 -8.5t-21 -6.5t-31 -2l-76 2v-23l123 -1q5 0 14 -0.5t25 -6t20 -14.5l-182 -5v-23h214q19 -15 19 -24l-490 -3v-27l501 4q20 -13 20 -27l-521 -3v-23h528q1 0 1.5 -2t2 -7.5t-0.5 -11.5l-531 -4v-23h531q5 -14 0 -24l-531 -3v-24h527q4 -15 -8 -27
h-519v-25l508 2q-1 -24 -12 -26h-180v-26l156 2q-11 -24 -21 -27l-135 -2v-26l91 2q-1 -1 -2.5 -3t-10.5 -6.5t-22 -8t-39 -5.5t-59 -1l-400 1v827zM692 271q0 2 -0.5 6.5t0.5 16.5t4.5 23t11.5 25.5t19.5 26t32 21.5t46.5 14q4 1 12.5 2.5t33.5 3.5t47.5 1.5t50 -6t48 -16
t35 -32t15.5 -51.5l4 -272l15 -47l-121 -3l-7 42q-2 -1 -4 -3.5t-10.5 -8.5t-17.5 -11t-23.5 -11t-29.5 -9t-34.5 -2.5t-39.5 4.5q-5 1 -12 2t-25 8.5t-32 19.5t-25.5 37t-11.5 57v9q0 5 3 20t9.5 27.5t21 26.5t34.5 22q118 33 154 33q4 0 9 1.5t15 7t14 12.5t-1 20t-25 28
q-4 1 -10.5 2.5t-24 1.5t-31 -3t-25 -14.5t-12.5 -29.5zM1089 398h115l-2 -44q7 8 19 18.5t42 27t51 13.5q3 1 7.5 1.5t17.5 0t25.5 -3t28.5 -10.5t28.5 -20.5t23.5 -35t16 -51.5l3 -309h-113l-2 279q-1 3 -3.5 8t-12.5 16t-22 17t-32.5 4t-42.5 -17q-2 0 -4.5 -1.5t-8.5 -9
t-10 -18t-6.5 -31.5t-1.5 -47l2 -200l-115 2zM1505 566l106 -2l6 -314l129 168h131l-119 -165l144 -263l-134 -5l-92 170l-56 -76l2 -92h-114zM937 183q-2 -6 -33.5 -17.5t-60.5 -19.5l-30 -8q-15 -6 -21.5 -17.5t-4.5 -20.5l2 -9q21 -48 87 -17l10 5q17 3 29.5 16t17.5 24
l4 11v53z" />
    <glyph glyph-name="uniE63B" unicode="&#xe63b;" 
d="M473 203l121 307l127 -307h-248zM218 203l122 307l126 -307h-248zM850 273h95l-5 -18h-82zM831 316h122l-3 -19h-110zM813 359h145l-2 -18h-135zM795 403h163v-19h-155zM777 446h177l2 -19h-172zM758 489h188l4 -18h-184zM510 833h18l20 -2l18 -1l18 -4l18 -3l18 -4
l18 -5l17 -5l8 -3l9 -3l16 -7l17 -8l15 -8l15 -8l16 -9l14 -11l15 -10l13 -10l14 -12l13 -12l12 -12l13 -13l11 -13l5 -8l5 -7l12 -14l9 -15l9 -14l10 -16l7 -16l8 -16l6 -16l6 -17l7 -17h-192l-119 277l-123 -312l-130 309l-229 -591l104 -130h530l97 142l-9 21h62l-6 -16
l-7 -16l-7 -15l-7 -14l-10 -16l-8 -14l-10 -14l-10 -13l-10 -14l-11 -13l-12 -11l-12 -13l-12 -11l-13 -11l-13 -11l-14 -10l-13 -9l-14 -9l-15 -9l-15 -8l-16 -7l-15 -6l-17 -7l-15 -6l-17 -5l-17 -4l-17 -4l-17 -3l-8 -1l-10 -1l-17 -2l-18 -1h-18h-23l-23 2l-22 3l-23 4
l-22 5l-20 5l-21 7l-21 9l-19 9l-20 9l-9 6l-9 5l-19 12l-17 12l-18 14l-8 7l-7 7l-9 7l-7 8l-15 15l-15 16l-6 9l-6 9l-14 18l-5 8l-6 9l-5 9l-5 11l-11 18l-9 21l-7 19l-7 22l-6 21l-4 11l-2 10l-2 12l-2 11l-3 22l-1 23l-1 12v11l1 23l1 23l3 22l4 23l6 22l6 20l7 21
l7 20l9 20l11 20l5 9l5 9l11 19l14 17l12 18l7 8l8 7l7 8l8 8l16 15l15 15l9 6l9 6l17 13l9 5l10 7l9 5l9 5l20 10l19 10l21 8l21 6l20 6l12 3l10 2l11 2l12 2l22 4l23 1l11 1h12z" />
    <glyph glyph-name="uniE63C" unicode="&#xe63c;" 
d="M279 715v-787q47 -24 98 -38v668q0 51 -27 93t-71 64zM745 715v-787q-46 -24 -98 -38v668q0 51 27 93t71 64zM747 825q0 14 -13 20v1q-105 50 -222 50t-222 -51q-13 -6 -13 -20q0 -16 16 -21q69 -22 113.5 -81.5t44.5 -133.5v-713q31 -4 61 -4t61 4v713q0 74 44.5 133.5
t113.5 81.5q16 5 16 21zM162 417q11 -4 22 0t17 14v359q-94 -71 -147.5 -177.5t-53.5 -228.5t53.5 -228.5t147.5 -177.5v359q-6 10 -17 14t-22 0q-38 -14 -49 -54v-1q-2 -6 -8 -6q-4 0 -6 3q-33 39 -33 91t33 91q3 3 6 3q6 0 8 -7v1l-1 4q9 -44 50 -59zM977 351
q-39 -14 -49 -54q-2 -7 -8 -7q-5 0 -7 4q-32 39 -32 90t32 90q3 4 7 4q6 0 8 -6v-1q10 -39 49 -54q13 -4 25 1.5t17 18.5q1 3 1 6q-12 105 -63.5 195t-133.5 152v-812q82 62 133.5 152t63.5 195q0 3 -1 6q-5 13 -17 18.5t-25 1.5z" />
    <glyph glyph-name="uniE63D" unicode="&#xe63d;" 
d="M582 -123q-107 -15 -210 16.5t-182 95.5t-130 159.5t-59 202.5q-8 121 39.5 233.5t139 192t208.5 109.5v-140v-141q0 -17 0.5 -22t3 -13.5t9.5 -10.5t20 -2h27h27q8 -1 13 -3.5t7.5 -5.5t4 -10t1.5 -10v-13v-12v-118q-4 8 -13.5 11.5t-18 3.5t-22 -1t-17.5 -1h-34h-33
q-19 2 -21 23v37v37v261q-107 -50 -172 -151.5t-65 -219.5q0 -99 46 -187t126.5 -146t177.5 -72v215q0 2 0.5 5.5t0.5 5.5t-0.5 4.5t-2.5 3.5t-5 1h-17h-36q-3 0 -11.5 -0.5t-13.5 -0.5t-12 1.5t-11 5.5t-5 11q-1 5 -1 12t0.5 16t0.5 13v121q-1 -16 13 -20q12 -3 26 -3
t32.5 1t26.5 1q3 0 12 1t15.5 0.5t14.5 -1.5t12.5 -5t5.5 -11q2 -7 2 -15.5t-0.5 -19t-0.5 -14.5v-54v-28v-3q0 -5 4 -7h1l18 -1v103q0 2 -0.5 12.5t0 15.5t2 12.5t7 11t13.5 3.5q12 2 26.5 2t32.5 -1t27 -1q1 0 11.5 -0.5t15 0t12 2.5t10 7t2.5 13v-53v-54q0 -3 -1 -15
t-1 -21.5t2 -14.5q7 -16 -17 -20.5t-56.5 -2.5t-35.5 1l-4 -2h-1q0 -3 -1 -6v-14v-30v-60v-123q98 14 178 72t126 146t46 187q0 118 -64 219.5t-171 151.5v-229v-65l-1 -11t-0.5 -19.5t1.5 -9.5q0 -20 -17 -24q-12 -2 -27 -2t-34 1t-28 1q-3 0 -14 0.5t-16.5 0t-12.5 -3.5
t-10 -10v104q0 2 -1 15.5t-1 21.5t3.5 17.5t11.5 11.5q13 4 34.5 1t42.5 0t23 17q3 21 3 47t-1.5 57.5t-1.5 47.5q1 27 1 81v79q160 -40 268 -171.5t117 -297.5q8 -130 -48 -248t-160.5 -196t-232.5 -95zM570 630q0 -3 0.5 -9t0.5 -11t-2 -8q0 -7 -3 -13q-2 -3 -4.5 -4.5
t-5 -2.5t-6.5 -1.5t-6 -0.5h-6h-6h-56q-18 1 -20 18q-2 15 -2 33.5t0.5 40.5t0.5 34v153q0 37 2 37h22h44h45q2 0 2 -73v-154v-39z" />
    <glyph glyph-name="uniE63E" unicode="&#xe63e;" 
d="M925 367h-170q-12 0 -17 -2l-14 -9l-209 -214q-7 -5 -13 0l-223 227q-6 6 0 13l224 227q2 3 5.5 3t6.5 -3l196 -200q8 -10 17 -13q4 -1 10 1.5t9 5.5l4 3l90 94l-264 267q-58 60 -142 49q-159 -27 -262.5 -152t-103.5 -291q0 -91 35.5 -174t95 -143t140.5 -95t169 -35
q114 0 213.5 57t160 156.5t65.5 217.5q0 6 -5 9q-3 2 -7.5 2.5t-7.5 -0.5zM647 775l232 -235l64 64q6 10 8 19q1 3 -1.5 6t-5.5 5l-2 3l-141 145q-38 38 -80.5 59t-77 24.5t-63.5 1t-45 -8.5l-16 -6q2 0 6.5 -0.5t19 -4.5t29 -11.5t34.5 -23.5t39 -37z" />
    <glyph glyph-name="uniE63F" unicode="&#xe63f;" 
d="M1004 244l4 18l4 17l4 17l3 17l1 9l1 9l1 9l1 9v9l1 9v9v9v13l-1 13l-1 13l-1 12l-1 13l-1 13l-2 12l-3 12l-2 13l-3 12l-3 12l-3 12l-4 11l-4 12l-4 11l-5 11l-5 12l-5 11l-5 11l-6 11l-6 10l-6 11l-7 11l-7 10l-7 10l-8 10l-7 10l-8 10l-9 10l-8 9l-9 10l-10 9l-9 9
l-10 10l-9 8l-10 8l-10 9l-10 7l-10 8l-11 7l-10 7l-11 6l-10 7l-11 6l-11 6l-11 5l-11 5l-11 5l-12 5l-12 4l-11 4l-12 3l-12 4l-11 3l-13 3l-12 2l-12 2l-12 2l-13 2l-12 1l-13 1l-13 1l-13 1h-13h-13l-13 -1l-13 -1l-13 -1l-13 -1l-12 -2l-13 -2l-12 -2l-12 -2l-13 -3
l-11 -3l-12 -4l-12 -3l-11 -4l-12 -4l-11 -5l-11 -5l-12 -5l-11 -5l-11 -6l-10 -6l-11 -7l-10 -6l-11 -7l-10 -7l-10 -8l-10 -7l-10 -9l-10 -8l-9 -8l-10 -10l-9 -9l-10 -9l-9 -10l-8 -9l-9 -10l-8 -10l-7 -10l-8 -10l-7 -10l-7 -10l-7 -11l-6 -11l-6 -10l-6 -11l-5 -11
l-5 -11l-5 -12l-5 -11l-4 -11l-4 -12l-4 -11l-3 -12l-3 -12l-3 -12l-3 -13l-2 -12l-2 -12l-1 -13l-1 -13l-2 -12v-13l-1 -13v-13v-13l1 -13v-13l2 -13l1 -13l1 -12l2 -13l2 -12l3 -12l3 -12l3 -12l3 -12l4 -12l4 -12l4 -11l5 -12l5 -11l5 -11l5 -11l6 -11l6 -11l6 -10l7 -11
l7 -11l7 -10l8 -10l7 -10l8 -10l9 -10l8 -10l9 -9l10 -10l9 -9l10 -9l9 -9l10 -8l10 -8l10 -8l10 -7l10 -7l11 -7l10 -7l11 -6l10 -6l11 -6l11 -6l12 -5l11 -5l11 -4l12 -4l11 -4l12 -4l12 -3l11 -3l13 -3l12 -3l12 -2l13 -2l12 -2l13 -1l13 -1h13l13 -1h13h18l19 1l17 1
l18 2l18 3l17 3l17 4l16 4l16 5l17 5l16 6l15 6l16 7l15 8l15 8l15 9l10 6l9 6l10 6l8 7l9 6l8 7l8 6l8 7l6 7l7 6l7 7l5 7l6 7l5 7l5 7l5 7l4 8l4 7l3 7l3 7l3 8l2 7l2 8l2 8l1 7l1 8v8l1 8l-1 8v8l-1 8l-1 8l-2 6l-1 7l-2 6l-2 7l-2 6l-3 6l-3 6l-3 6l-3 6l-4 5l-4 6l-4 5
l-4 5l-5 5l-5 5l-5 5l-5 5l-6 4l-6 5l-5 4l-7 4l-6 4l-7 4l-7 4l-7 3l-8 4l-8 3l-8 3l-8 4l-9 3l-9 2l-9 3l-23 8l7 5l8 4l7 5l6 5l6 5l5 6l5 5l5 6l4 6l4 7l4 6l3 7l3 7l2 6l1 8l2 7v9l1 8l-1 8v9l-2 8l-2 8l-2 8l-4 8l-3 8l-5 8l-5 7l-5 8l-7 7l-6 8l-8 7l-8 7l-8 8l-9 7
l-9 7l-10 6l-9 6l-10 5l-11 5l-10 5l-11 5l-11 4l-12 4l-12 3l-12 3l-13 3l-12 3l-13 2l-15 2l-15 2l-16 2l-16 1l-16 1l-16 1l-16 1h-17h-17h-17h-18h-17l-18 -1l-19 -1l-18 -1l-19 -2v-161l15 2l15 1l15 2l15 1l15 1h16l15 1h15h16l15 -1h16l15 -2l16 -1l16 -2l15 -1
l16 -2l13 -2l12 -3l12 -3l10 -3l10 -3l9 -3l8 -4l8 -4l3 -2l4 -2l3 -3l2 -2l3 -2l2 -3l3 -2l2 -3l2 -3l2 -3l1 -2l1 -4l1 -2l1 -3l1 -4l1 -3v-3v-3l-1 -2l-1 -4l-2 -6l-4 -8l-2 -3l-2 -4l-3 -2l-4 -3l-3 -2l-4 -2l-4 -1l-4 -1l-5 -1l-5 -1l-6 -1h-5h-6l-7 1l-6 1l-7 1l-19 2
l-19 2l-18 1l-18 1l-18 1l-18 1h-18l-17 1l-17 -1h-17l-18 -1l-16 -1l-17 -1l-17 -1l-16 -2l-16 -2v-165l23 2l22 3l22 2l22 1l21 1l21 1l20 1h20l20 -1l19 -1l19 -1l18 -2l18 -2l18 -2l17 -3l17 -3l13 -3l13 -3l12 -3l11 -3l10 -4l9 -4l5 -3l4 -2l4 -2l4 -2l3 -3l4 -2l3 -3
l2 -3l3 -3l3 -2l2 -3l2 -3l2 -3l2 -4l1 -3l1 -3l1 -3l1 -4l1 -3v-4v-3l1 -3l-1 -3v-3v-3l-1 -3l-1 -3l-1 -3l-1 -3l-2 -3l-1 -3l-2 -3l-4 -6l-5 -6l-3 -4l-4 -3l-4 -4l-4 -3l-4 -3l-4 -3l-5 -3l-4 -3l-5 -3l-5 -2l-5 -3l-6 -2l-5 -2l-6 -3l-6 -1l-6 -2l-7 -2l-6 -2l-7 -1
l-7 -2l-14 -2l-15 -2l-16 -2l-17 -1l-18 -1h-18h-10l-9 1h-10l-10 1l-9 1l-10 1l-9 1l-9 2l-9 2l-9 2l-9 2l-9 3l-8 2l-9 3l-9 3l-8 3l-8 4l-9 4l-8 4l-8 4l-8 4l-8 5l-7 5l-8 5l-8 5l-7 6l-8 5l-7 6l-7 7l-8 6l-7 6l-7 7l-6 7l-7 7l-6 7l-7 8l-6 7l-5 7l-6 8l-5 7l-5 8
l-5 8l-5 8l-4 8l-4 8l-4 8l-4 8l-4 8l-3 9l-3 8l-3 9l-3 8l-2 9l-3 9l-2 9l-2 9l-1 9l-2 9l-1 10l-1 9l-1 10v9l-1 10v10v9l1 10v10l1 9l1 9l1 10l2 9l1 9l2 9l2 9l3 9l2 9l3 8l3 9l3 8l3 9l4 8l4 8l4 9l4 8l4 8l5 8l5 7l5 8l5 8l6 7l5 8l6 7l7 7l6 7l7 7l6 7l7 7l8 7l7 6
l7 6l8 6l7 6l8 5l7 6l8 5l8 5l7 4l9 5l8 4l8 4l8 4l8 3l9 4l8 3l9 3l8 3l9 2l9 3l9 2l9 1l9 2l9 2l10 1l10 1h9l10 1h9l10 1l10 -1h9l10 -1h9l10 -1l9 -1l9 -2l9 -2l9 -1l9 -2l9 -3l9 -2l9 -3l8 -3l9 -3l8 -4l8 -3l8 -4l9 -4l8 -4l7 -5l9 -4l7 -5l8 -5l7 -6l8 -5l7 -6l8 -6
l7 -6l7 -6l7 -7l7 -7l6 -7l7 -6l6 -8l7 -7l6 -7l5 -7l6 -8l5 -7l5 -8l5 -8l5 -8l4 -8l4 -8l4 -8l4 -8l4 -9l3 -8l3 -9l3 -8l3 -9l2 -9l3 -9l2 -9l2 -9l1 -9l2 -9l1 -10l1 -9l1 -9v-10l1 -10v-9l-2 -42l8 -5l8 -4l8 -6l8 -5l7 -5l8 -6l7 -6l8 -6l7 -6l7 -6l6 -7l7 -7l7 -7
l6 -7l6 -7z" />
    <glyph glyph-name="uniE640" unicode="&#xe640;" 
d="M513 452q-51 -103 -115 -200v0q-170 -10 -314 -49q105 114 187 256.5t127 288.5h1q39 -145 114 -296zM398 252q115 7 231 0q95 -143 202 -248q-152 34 -316.5 34.5t-316.5 -33.5l3 4l4 3l3 3l3 4l4 3l3 4l3 3l3 3l4 4l3 3l3 4l4 4l3 3l3 4l3 3l4 4l3 4l3 3l3 4l4 4l3 3
l3 4l3 4l3 3q64 75 122 162zM629 252q-64 96 -116 200q76 152 114 296q47 -148 130 -291t188 -256h-1q-146 40 -315 51zM629 252q169 -11 315 -51l-113 -197q-107 105 -202 248zM398 252q-94 -140 -200 -247l-114 198q144 39 314 49zM627 748q-38 -144 -114 -296
q-75 151 -114 296h228z" />
    <glyph glyph-name="uniE641" unicode="&#xe641;" 
d="M287 699q130 39 281 29q123 -8 221 -47q61 -26 101 -60q56 -49 54 -107h-73h-73q2 38 -27 70q-32 37 -92 62q-90 35 -201 28q-75 -5 -135 -30q-50 -21 -80 -51q-31 -31 -35 -65q-4 -35 18 -66q24 -35 73 -60q82 -42 194 -42q1 -1 6 -3q26 -11 95.5 -42.5t107.5 -49.5
q-1 0 -209 -93q-49 21 -191 85l-18 9q13 6 51.5 23.5t59.5 27.5q-112 14 -195 50q-60 27 -96 62q-33 33 -40 69q-8 39 14 77q21 36 66 67q50 34 123 57zM428 266q3 -2 13 -6q18 -8 72 -33q6 3 37.5 17t47.5 22q-12 5 -41 18t-44 20q-11 -5 -40 -18t-45 -20zM303 517
q31 14 66.5 29.5t77.5 34.5t66 30q31 -14 66 -30t77.5 -35t65.5 -29q-18 -9 -55 -26t-56 -26q112 -14 195 -50q63 -28 99 -65q34 -35 38 -75q5 -43 -25 -83q-29 -39 -85 -70q-88 -47 -211 -63q-169 -21 -320 20q-107 31 -167 83q-55 49 -53 106h146q-2 -34 22 -64
q27 -35 81 -60q81 -37 186 -37q97 1 174 35q55 24 83 60q28 34 24 71q-4 39 -39 71q-32 30 -84 50q-71 28 -158 29q-4 -1 -15 4q-91 41 -199 90zM428 517q16 -8 48.5 -22.5t36.5 -16.5q3 2 35.5 16.5t49.5 22.5q-10 4 -39.5 17.5t-45.5 20.5q-66 -30 -85 -38z" />
    <glyph glyph-name="uniE642" unicode="&#xe642;" 
d="M512 831q-91 0 -173.5 -35.5t-142.5 -95.5t-95.5 -142.5t-35.5 -173.5t35.5 -173.5t95.5 -142.5t142.5 -95.5t173.5 -35.5t173.5 35.5t142.5 95.5t95.5 142.5t35.5 173.5t-35.5 173.5t-95.5 142.5t-142.5 95.5t-173.5 35.5zM691 275h-199q-12 0 -21 9q-9 8 -9 21v297
q0 13 9 21.5t21.5 8.5t21 -8.5t8.5 -21.5v-268h169q12 0 20.5 -8.5t8.5 -21t-8.5 -21t-20.5 -8.5z" />
    <glyph glyph-name="uniE643" unicode="&#xe643;" 
d="M810 128q-35 -1 -96.5 -3t-80.5 -3q-11 -46 -51 -72.5t-88 -25t-93 19t-71 62.5t-16 104q9 59 58 95.5t113.5 34t114.5 -47.5q17 -19 26 -40.5t14 -59.5q28 1 88.5 3t81.5 3q1 64 -22 119.5t-62 94.5t-91.5 65t-109.5 34t-118.5 -3.5t-116.5 -42.5q-52 -29 -87.5 -78.5
t-49.5 -106t-10 -118.5t25 -116.5t61.5 -99.5t95.5 -68v-6q-93 2 -179 64t-108 146l2 603q48 33 150.5 105t151.5 106q3 -1 7 -3.5t5 -2.5q-9 -117 3 -350q10 10 33.5 34t36.5 35.5t35.5 28.5t47 27t55.5 16q94 18 173 -9q75 -26 130 -74.5t83 -107t33.5 -125t-12.5 -128
t-61 -115.5t-107 -87q-3 0 -13 -6t-15 -7q0 1 2 4l4 7q3 5 5 8q4 14 11.5 43t11.5 44v0zM810 128z" />
    <glyph glyph-name="uniE644" unicode="&#xe644;" 
d="M971 752h-918q-22 0 -37.5 -15.5t-15.5 -37.5v-139h1024v139q0 22 -15.5 37.5t-37.5 15.5zM845 247q-9 0 -11 1v-2l-3 -11q-6 -25 -6 -26h10l1 2v4v2l2 5v1h1q11 0 16 3.5t6 9.5q1 2 1 4t-2 4q-2 3 -12 3h-3zM851 235q-1 -4 -4 -5q-2 -1 -6 -1h-2l3 12v1h1l6 -1
q3 -1 2 -6zM856 168h-2l8 26h2l1 2v-3q0 -3 5 -3h5l1 5h-2q-1 0 -1 1v3h-8q-10 0 -12 -1l-4 -2l1 3h-8l-1 -5l-8 -27h-2l-1 -5h15l-1 -1h8v1h2zM846 168h-6l2 5h6zM850 179q-2 0 -3 -1l-4 -1l2 7h6zM850 188l-4 -1l2 7h6l-1 -5q-2 0 -3 -1zM822 176v-1h-2h-2l1 2h-7l-1 -14
q0 -1 1 -1.5t6 -0.5h5l1 5h-4h-1h-1v1v4h4q2 0 4 1q1 1 1 3l1 3h-5zM856 219q-2 -8 3 -10q3 -1 5 -1t4 2v-1v-1h9v1q1 6 3 13q1 4 2 9q-4 0 -9 -1h-1v-1q-1 1 -3 2q-3 1 -9 -3q-3 -3 -4 -9zM864 219q2 7 5 7q2 0 2 -4v-2q-1 -2 -1 -3l-1 -2q-1 -2 -3 -2t-2 2v4zM775 220
q-2 -9 4 -11q2 -1 5 -1q6 0 10 4q3 3 4 8q1 6 -1 8.5t-8 2.5t-10 -3q-3 -3 -4 -8zM784 219q1 7 4 7t1 -6q-1 -3 -2 -5t-2 -2q-2 0 -2 3q0 1 1 3zM780 183h4l-1 -5h-4l-2 -5h5l-3 -9v-2q1 -1 2 -1h2h10l1 5h-4q-3 0 -3 1l2 6h9l1 5h-8l1 5h8l2 4h-21zM797 199h-9l-2 -4l-2 -1
q0 -1 -1 -1h-1l-2 -5h4q2 0 4 1v1h1l1 1h12l2 5h-9zM773 227q-4 -1 -5 -1h-2h-2v-1h-1v-4q-1 -2 -1 -6q-1 -2 -1 -3q-1 -2 -1 -3v0h4h5v0v2q0 1 0.5 1t1.5 5q0 1 1 3v2q1 4 1 5v0zM713 209q7 0 11 2q5 3 8 12v2q5 20 6 22h-9l-1 -5q-2 -6 -3 -11l-1 -5q-2 -7 -4 -9t-5 -2
q-4 0 -5 4v1l1 6q5 19 6 21h-11v-1l-5 -21v-2l-1 -6q0 -2 1 -4q2 -4 12 -4zM772.5 233q-3.5 2 -7 -0.5t-0.5 -4.5t7 0.5t0.5 4.5zM734 209h9q1 4 1 7l2 8q2 1 3 1l-19 -81q-1 -7 2.5 -12t10.5 -5h3q-7 0 -10.5 5t-1.5 12l15 65h6h1q1 4 2 9v3q2 6 1 8q-1 3 -5 3l10 40
q3 14 17 16h-3q-15 -2 -18 -16l-9 -41q-1 0 -2 -1l-2 -1l1 2l-1 1q-3 -1 -8 -2h-1q0 -6 -2 -13zM861 184h9l-2 -4h-8l-2 -5h8l-6 -8q0 -1 -1 -1h-2h-2l-1 -5h5q4 0 6 3l4 5l1 -5q0 -2 2 -2q1 -1 2 -1h2h2l2 5h-1h-2v2l-1 5h-4l2 2h9l1 5h-8l1 4h8l2 5h-25zM0 69
q0 -22 15.5 -37.5t37.5 -15.5h918q22 0 37.5 15.5t15.5 37.5v395h-1024v-395zM671 144l30 128q2 7 7.5 11.5t12.5 4.5h61h2h74h2h56q6 0 10 -4.5t2 -11.5l-30 -128q-3 -14 -17 -17h-1h-64q-7 0 -10.5 5t-1.5 12l4 17h1l2 5h-2l3 13h8h3q1 0 3 1q1 0 2 1q1 2 2 5l4 13h-12
q-3 -1 -5 -1l-1 -1l3 12h1q1 4 2 9v3q2 6 1 8l10 43q4 14 18 16h-3q-14 -2 -17 -16l-10 -41q-1 1 -2 1q-3 0 -6 -2l-2 -1l1 2v1q-4 -1 -9 -2q-1 -6 -3 -13q-1 -7 -2 -8h1h8q1 6 2 7l1 8q2 1 3 1q2 0 1 -2q0 -2 -1 -8l-1 -2v-1q0 -2 -1 -3h1h4l-2 -10h-7l-10 -33
q0 -2 -0.5 -3t1.5 -2h2h4h1l-4 -17q-2 -7 1.5 -12t10.5 -5h-63h-2h-64q-7 0 -10.5 5t-2.5 12zM805 168l4 11l-3 -13h-1v2zM810 183v1v-1zM822 186v-3h-1h-1h-7v3h9zM814 190l1 3h10l-1 -2h-7q-1 -1 -3 -1zM288 368q0 7 4.5 11.5t11.5 4.5h31q7 0 12 -4.5t5 -11.5v-48
q0 -6 -5 -11t-12 -5h-31q-7 0 -11.5 5t-4.5 11v48zM176 368q0 7 5 11.5t12 4.5h31q7 0 11.5 -4.5t4.5 -11.5v-48q0 -6 -4.5 -11t-11.5 -5h-31q-7 0 -12 5t-5 11v48zM64 368q0 7 5 11.5t11 4.5h32q6 0 11 -4.5t5 -11.5v-48q0 -6 -5 -11t-11 -5h-32q-6 0 -11 5t-5 11v48z
M880 196v-1h-1h-1l-2 -5h5q4 0 6 3l22 38l-1 1l-8 -2v0l-3 -6l-2 -4v1l-1 10v1q-6 -2 -8 -2h-1v-1q1 -2 1 -5q0 -1 0.5 -3t0.5 -3q1 -6 1 -10q-1 -1 -2.5 -4t-3.5 -5z" />
    <glyph glyph-name="uniE645" unicode="&#xe645;" horiz-adv-x="2900" 
d="M330 246.5q-61 -6.5 -94 -34.5q-22 -19 -30.5 -43.5t-2 -48.5t24 -44.5t51.5 -33t77 -12.5q64 0 127 38t116 106q-85 41 -146.5 60t-122.5 12.5zM889 165q138 -46 170 -49v498q0 64 -45.5 109t-108.5 45h-655q-64 0 -109 -45t-45 -109v-652q0 -64 45 -109t109 -45h655
q63 0 108.5 45t45.5 109v6q-251 104 -377 165q-65 -79 -144.5 -123t-163.5 -44q-69 0 -119 28t-70.5 69.5t-15.5 90.5t39 90q35 42 106 59q99 25 334 -52q34 62 54 132h-376v38h194v68h-235v38h235v97q0 2 0.5 5t4.5 7.5t12 4.5h94v-114h233v-38h-233v-68h190
q-27 -110 -80 -202q20 -8 52.5 -20t55.5 -20t40 -14zM2429 618h276v-55h98v65q0 11 -7.5 18.5t-17.5 7.5h-160v51h-103v-51h-184v-91h98v55zM1833 701l-101 -239h77v-284h85v377h-31l64 146h-94zM2814 191l-31 104q-3 12 -15 12h-82l24 -80h-96v155h189v37h-189v73h189v37
h-472v-37h189v-73h-189v-37h189v-155h-189v-37h483v1v0zM2049 505q-5 11 -17 11h-73l57 -180h86zM2235 696h-88v-92h-217v-37h217v-330q-1 -13 -14 -14h-45v-38h114q13 0 23 10t10 24v348h36v37h-36v92zM1686 529h-169v60h196v38h-196v77h-88q-7 0 -12 -5.5t-5 -12.5v-59
h-194v-38h194v-60h-164v-38h327q-1 -3 -2.5 -8t-9.5 -21.5t-19 -33t-31.5 -39.5t-45.5 -45q-36 27 -62.5 54.5t-35.5 41.5l-9 14h-88q48 -84 140 -150q-83 -55 -198 -89v-45q15 3 39.5 9t92 31t122.5 58q56 -33 118.5 -57.5t97.5 -32.5l35 -8v43q-110 39 -194 92
q127 94 161 224zM1408 -74l15 -44h41l-81 219h-31l-80 -219h41l15 44h80zM1369 44l30 -91h-62zM1593 101v-219h133v29h-93v190h-40zM1870 101h40v-219h-40v219zM2155 101h-85v-219h39v84h46q32 0 52 18.5t20 48.5t-20 49t-52 19zM2153 -4h-44v75h44q15 0 24.5 -11.5t9.5 -26
t-9 -26t-25 -11.5zM2458 -74l15 -44h41l-81 219h-31l-81 -219h41l16 44h80zM2419 44l30 -91h-62zM2733 101l-43 -94l-43 94h-43l66 -129v-90h39v90h1l66 129h-43z" />
    <glyph glyph-name="uniE646" unicode="&#xe646;" 
d="M398 -147l-222 278q-1 2 -1 5.5t1 13.5t3 18.5t8.5 17t15.5 12.5t25 3t37 -10q16 -7 30 -18t22.5 -21.5t14.5 -20t8 -15.5l3 -5l2 422q1 2 3.5 5t9.5 10.5t14.5 13t18.5 9t21 2t22 -11.5t23 -28l1 -267q2 3 7 8.5t20 15.5t31 12.5t38.5 -7t43.5 -36.5q2 4 6.5 10t18.5 17
t29 14.5t38 -7t45 -38.5q1 2 3.5 6t9.5 13t14 15t18 10t21.5 1t23 -16.5t24.5 -38.5v-336q-1 -3 -2.5 -8t-14 -19.5t-33.5 -28.5h-401zM400 748q-93 0 -159 -66t-66 -159q0 -61 31 -112.5t82 -80.5v69q-57 51 -57 125q0 70 49 119t118.5 49t119 -49t49.5 -119
q0 -73 -55 -123v-71q51 30 81.5 81t30.5 112q0 93 -65.5 159t-158.5 66zM400 748z" />
    <glyph glyph-name="uniE647" unicode="&#xe647;" 
d="M512 810q-104 0 -198.5 -40.5t-162.5 -108.5t-108.5 -162.5t-40.5 -198.5t40.5 -198.5t108.5 -162.5t162.5 -108.5t198.5 -40.5t198.5 40.5t162.5 108.5t108.5 162.5t40.5 198.5t-40.5 198.5t-108.5 162.5t-162.5 108.5t-198.5 40.5zM472 24h-196q-14 0 -29 6
q-14 6 -25.5 17t-16.5 25q-6 16 -6 32v390q0 16 6 32q8 16 17 23q7 9 25 16q12 7 29 7h472q17 0 29 -7q17 -8 23 -16q13 -17 17 -25q6 -13 6 -30v-115l-77 -2v2q0 15 -12 28q-11 10 -28 10h-393q-16 0 -26.5 -10.5t-10.5 -27.5v-236q0 -16 10 -27q12 -12 30 -15h154v-77h2z
M811 133q-11 -30 -38 -57q-25 -25 -56 -37q-29 -15 -69 -15q-33 0 -69 15q-31 12 -57 37q-27 32 -37 57q-15 29 -15 69q0 32 15 69q12 31 37 56q32 28 57 38q29 14 69 14q32 0 69 -14q31 -13 56 -38q28 -32 38 -56q14 -32 14 -69q0 -33 -14 -69zM723 212h-38l42 69q7 6 7 15
q0 6 -3 8q0 2 -4 6q-1 0 -3 1.5t-3 1.5q-2 2 -8 2q-5 0 -13 -5l-8 -8l-46 -77l-42 75l-8 8q-9 5 -13 5q-11 0 -15 -7q-6 -6 -6 -12.5t2 -10.5q0 -4 4 -8l38 -65h-42q-6 0 -10 -4t-4 -10q0 -9 4 -13t10 -4h52v-17h-52q-6 0 -10 -4t-4 -11q0 -4 4 -12q3 -6 10 -6h52v-30
q0 -14 9 -16q6 -7 19 -7q25 0 25 23v28h52q10 4 10 6q5 4 5 10q0 9 -5 13q-3 6 -10 6h-52v17h52q10 5 10 6q5 4 5 11v2q0 6 -5 10q0 4 -8 4z" />
  </font>
</defs>
</svg>
